<?xml version="1.0" encoding="utf-8"?>
<!DOCTYPE svg PUBLIC "-//W3C//DTD SVG 1.0//EN" "http://www.w3.org/TR/2001/REC-SVG-20010904/DTD/svg10.dtd">
<svg version="1.0" xmlns="http://www.w3.org/2000/svg" width="595px" height="842px" viewBox="0 0 595 842" preserveAspectRatio="xMidYMid meet">
 <g fill="#1f3d7f">
  <path d="M232.5 455.4 c-21.2 -4.5 -45.7 -14.3 -46.8 -18.5 -0.9 -3.4 0.9 -5.9 4.3 -5.9 3.7 0 22.1 7.7 31 12.9 3.6 2.1 10.2 5.7 14.7 8 4.5 2.2 8.4 4.5 8.8 5.1 0.8 1.3 1.2 1.3 -12 -1.6z"/>
  <path d="M422.3 443.3 c-1.6 -0.6 -1.7 -3 -0.1 -3.5 0.7 -0.3 1.1 -2 1 -4.5 -0.3 -4 -0.2 -4.1 6.5 -8.2 3.7 -2.3 11.4 -7.2 17 -10.9 19.7 -13 40.5 -26.7 45.1 -29.9 22.6 -15.3 37.9 -23.9 39.7 -22.1 1.4 1.4 2.3 11.9 1.3 15.5 -4.7 17.4 -25.5 40.2 -46.8 51.2 -16.5 8.6 -35 13.2 -52.3 13 -5.6 0 -10.8 -0.3 -11.4 -0.6z"/>
  <path d="M343.1 292.9 c-13.1 -2.6 -22 -13.6 -22.1 -27.4 0 -7.5 2.9 -15.6 7.3 -20.3 5.9 -6.4 19.9 -9.9 29.3 -7.3 5.6 1.5 12.8 7.2 16 12.8 3.2 5.3 4.4 17 2.5 24 -1.4 5.2 -8.8 13.5 -14.4 16.1 -5.1 2.4 -12.7 3.3 -18.6 2.1z m11.2 -8 c4 -1.1 11 -6.7 12.9 -10.3 5.2 -9.7 0.2 -23.9 -9.9 -28.2 -9.8 -4.2 -23.6 1.4 -27.2 10.9 -3 7.8 0 19.5 6.2 23.9 6.2 4.6 11.3 5.6 18 3.7z"/>
  <path d="M407.5 240.3 c-13.7 -5.7 -22.6 -15.5 -26.1 -28.8 -2.6 -9.5 -1.7 -16.3 3.8 -28.8 2.1 -4.9 2.6 -7.2 1.9 -8.1 -1.7 -2 5 -8 7.9 -7.1 1.5 0.5 4.4 -0.3 9.1 -2.5 6.7 -3.1 7.4 -3.2 17.7 -2.8 9.5 0.3 11.4 0.7 16.6 3.3 25.1 12.6 30.2 45.4 10.2 65 -2.9 2.7 -7.9 6.3 -11.1 8 -5.3 2.6 -7.2 3 -16 3.2 -7.5 0.2 -11 -0.1 -14 -1.4z m28.1 -9.9 c23.4 -11.9 22.7 -47 -1 -58 -6.4 -3 -20.1 -3.4 -26.8 -0.7 -5.4 2.1 -5.3 2 -3.8 3.8 1.1 1.3 0.7 2.1 -2.6 4.9 -3 2.6 -4.3 3.2 -5.6 2.5 -2.3 -1.3 -4.3 1.8 -6.4 10.1 -4.3 16.9 4.3 33.7 20.3 39.6 2.5 0.9 6.6 1.3 12 1.1 6.7 -0.3 9.3 -0.9 13.9 -3.3z"/>
  <path d="M383 129.7 c-9.4 -2.6 -16.4 -8.9 -20.8 -18.5 -2.1 -4.6 -2.4 -6.5 -2 -12.6 0.3 -4.2 1.4 -9.2 2.7 -12.2 6.7 -15.6 27.2 -22.5 42.8 -14.5 5.4 2.7 12.6 10.8 14.8 16.4 2.3 6 1.8 19.3 -1 25.2 -6 12.4 -23.1 20 -36.5 16.2z m19.1 -9.5 c7.8 -4 11.9 -11.1 11.9 -20.2 0 -8.1 -2.3 -13.4 -7.9 -18.2 -11.1 -9.5 -27.1 -6.7 -34.8 6.2 -12 19.8 10.2 43 30.8 32.2z"/>
 </g>
 <g fill="#00528f">
  <path d="M447 761.7 c0 -0.7 1.6 -1.7 3.5 -2.3 2.8 -0.9 3.5 -0.8 3.5 0.2 0 0.8 -0.1 1.4 -0.3 1.4 -0.1 0 -1.7 0.4 -3.5 0.9 -2.3 0.7 -3.2 0.6 -3.2 -0.2z"/>
  <path d="M279 761.1 c0 -0.6 1 -1.1 2.3 -1.1 1.2 0 3.3 -0.7 4.5 -1.6 2.7 -1.9 4.3 -1 2.1 1.2 -2 1.9 -8.9 3.1 -8.9 1.5z"/>
  <path d="M533 761.1 c0 -0.5 0.9 -1.3 2 -1.6 1.1 -0.3 2 -1.3 2 -2.1 0 -0.8 0.5 -1.4 1 -1.4 1.8 0 1.1 3.9 -0.9 5 -2.4 1.3 -4.1 1.3 -4.1 0.1z"/>
  <path d="M505.2 759.3 c0.8 -1 1.8 -2.6 2.1 -3.5 0.7 -2.1 2.7 -2.4 2.7 -0.5 0 2.1 -3 5.7 -4.7 5.7 -1.4 0 -1.4 -0.2 -0.1 -1.7z"/>
  <path d="M321.1 757.8 c-0.5 -1.3 -1.9 -4.5 -3 -7.1 -2.4 -5.6 -2.4 -5.7 -1 -5.7 0.5 0 1.5 1.4 2.1 3.1 0.6 1.7 2.1 5 3.3 7.5 1.7 3.3 1.9 4.4 0.8 4.4 -0.7 0 -1.7 -1 -2.2 -2.2z"/>
  <path d="M372.2 757.7 c-2.1 -2.2 -2.9 -4.7 -1.6 -4.7 0.3 0 1.4 1 2.5 2.3 1.6 1.9 1.8 2 1.9 0.4 0 -2.8 2 -0.9 2 1.9 0 3 -2 3.1 -4.8 0.1z"/>
  <path d="M407.4 757.8 c2 -2.8 2 -4.8 0.1 -4.8 -0.8 0 -1.5 -0.7 -1.5 -1.6 0 -1.1 0.5 -1.4 1.6 -1 0.9 0.3 2 0.6 2.5 0.6 0.5 0 0.9 1 0.9 2.3 0 2.5 -2.6 6.7 -4.1 6.7 -0.6 0 -0.3 -1 0.5 -2.2z"/>
  <path d="M288.7 749.8 c-0.4 -3 -1.4 -4.9 -3.1 -6.3 -3.3 -2.7 -3.3 -3.8 0 -2.3 3.1 1.4 5.4 5.6 5.4 9.8 0 4.5 -1.7 3.6 -2.3 -1.2z"/>
  <path d="M366 750.2 c0 -0.4 -1.1 -2 -2.5 -3.5 -1.7 -1.7 -2.1 -2.7 -1.2 -2.7 1.6 0 5.7 4.1 5.7 5.8 0 0.7 -0.4 1.2 -1 1.2 -0.5 0 -1 -0.3 -1 -0.8z"/>
  <path d="M435 750.6 c0 -2.1 2.6 -6.6 3.8 -6.6 1.2 0 1.3 0.3 0.4 1.2 -0.7 0.7 -1.2 2.2 -1.2 3.5 0 1.4 -0.6 2.3 -1.5 2.3 -0.8 0 -1.5 -0.2 -1.5 -0.4z"/>
  <path d="M329.5 747.9 c1.2 -4 3.8 -8.5 4.2 -7.3 0.5 1.6 -2.2 8.7 -3.6 9.2 -1 0.3 -1.1 -0.2 -0.6 -1.9z"/>
  <path d="M390 746 c0 -1.4 4.6 -6 6 -6 1.7 0 1.1 1.4 -1.9 4.3 -3.1 2.9 -4.1 3.3 -4.1 1.7z"/>
  <path d="M452.7 743.6 c-0.9 -0.7 -1.7 -1.6 -1.7 -2 0 -1.1 2.7 -0.6 3.9 0.8 1.6 1.9 0 2.7 -2.2 1.2z"/>
  <path d="M406.3 743.3 c-0.7 -0.2 -1.3 -1.1 -1.3 -1.9 0 -1.2 0.4 -1.2 2 -0.4 3.2 1.7 2.6 3.7 -0.7 2.3z"/>
  <path d="M159.2 716.5 c-1.5 -3.3 -1.5 -3.5 0.3 -3.5 0.8 0 1.5 -0.9 1.5 -2 0 -3.3 2.5 -2.2 3.9 1.8 0.8 2 1.6 4.3 1.8 5 0.4 0.8 -0.6 1.2 -2.9 1.2 -2.8 0 -3.7 -0.5 -4.6 -2.5z"/>
  <path d="M347 717 c0 -1.6 0.7 -2 3.5 -2 3.7 0 4.9 2.2 1.9 3.4 -3.2 1.2 -5.4 0.6 -5.4 -1.4z"/>
  <path d="M91 717 c0 -0.6 -1.6 -1 -3.5 -1 -2.8 0 -3.5 -0.4 -3.5 -1.9 0 -1.3 0.9 -2 3.3 -2.4 1.7 -0.2 3.3 -0.1 3.5 0.3 0.2 0.4 2.3 0.5 4.7 0.2 4.8 -0.5 5.8 0.5 2.4 2.6 -3.4 2.2 -6.9 3.3 -6.9 2.2z"/>
  <path d="M327.8 715 c-4.8 -2.6 -5.4 -3.8 -3.1 -6.2 2 -1.9 2 -1.9 6.4 0.1 2.4 1.1 5.2 2.2 6.2 2.5 3 0.9 2 3.6 -1.3 3.6 -1.6 0 -3 0.5 -3 1 0 1.4 -0.9 1.2 -5.2 -1z"/>
  <path d="M356 714.5 c0 -2.2 0.4 -2.5 3.5 -2.5 4.3 0 4.4 1 0.6 3.3 -3.8 2.2 -4.1 2.2 -4.1 -0.8z"/>
  <path d="M501.2 715.8 c-2.9 -2.9 -0.9 -6.1 4.6 -7.3 3 -0.6 3.2 -0.5 3.2 1.9 0 2.8 -1.4 3.5 -2.4 1.1 -0.3 -0.8 -1.5 -1.5 -2.6 -1.5 -1.6 0 -2 0.7 -2 3.1 0 2.8 0.3 3.1 2.5 2.7 1.4 -0.3 2.5 -0.1 2.5 0.3 0 1.3 -4.4 1.1 -5.8 -0.3z"/>
  <path d="M514.8 716.3 c2.7 -0.6 2.9 -2 0.2 -2.8 -2.9 -0.9 -2.7 -4.5 0.3 -4.4 1.6 0.1 1.8 0.2 0.5 0.6 -2.6 0.7 -2.2 2 0.8 2.7 3.6 0.9 2.8 4 -1.1 4.3 -2 0.1 -2.3 0 -0.7 -0.4z"/>
  <path d="M522.1 713.8 c0 -3.2 1.7 -8.5 1.8 -6.1 0.1 0.6 1.6 1.3 3.4 1.5 2.6 0.2 3.2 0.8 3.4 2.8 l0.3 2.5 -1 -2.3 c-1.3 -3.1 -5.4 -2.7 -5.8 0.6 -0.2 1.6 0.3 2.5 2 3.1 2.1 0.9 2.1 1 -0.9 1 -3.1 0.1 -3.3 -0.1 -3.2 -3.1z"/>
  <path d="M409 714 c0 -1.3 0.7 -2 1.9 -2 1.1 0 2.6 -0.3 3.5 -0.6 1.2 -0.5 1.6 0 1.6 2 0 2.3 -0.4 2.6 -3.5 2.6 -2.8 0 -3.5 -0.4 -3.5 -2z"/>
  <path d="M70 714 c0 -0.5 -0.9 -1 -2 -1 -1.6 0 -2 -0.7 -2 -3.5 l0 -3.4 3.6 2.4 c1.9 1.3 4.4 2.7 5.5 3 3.4 1.1 2.3 3.5 -1.6 3.5 -1.9 0 -3.5 -0.4 -3.5 -1z"/>
  <path d="M388.3 712.5 l-2.8 -2.4 2.8 -0.1 c2 0 2.7 -0.5 2.7 -2.1 0 -1.9 0.2 -1.9 3.5 0.7 4.1 3.1 4.4 4.4 1 4.4 -1.4 0 -2.5 0.5 -2.5 1 0 1.7 -1.7 1.1 -4.7 -1.5z"/>
  <path d="M101 708.7 c0 -4 1 -4.6 3 -2.1 1.1 1.3 1 1.9 -0.8 3.7 l-2.2 2.1 0 -3.7z"/>
  <path d="M59.1 708.4 c-2.7 -3.5 -2.6 -4.4 0.4 -4.4 2.2 0 2.5 0.4 2.5 3.5 0 1.9 -0.2 3.5 -0.4 3.5 -0.3 0 -1.4 -1.2 -2.5 -2.6z"/>
  <path d="M116.4 707.3 c2.6 -7.1 4.3 -10.3 5.4 -10.3 0.6 0 1.2 0.7 1.2 1.5 0 0.8 0.9 1.5 2 1.5 1.1 0 2 0.5 2 1 0 0.6 -0.4 1 -1 1 -0.5 0 -1.2 1.1 -1.6 2.5 -0.3 1.4 -1.2 2.5 -2 2.5 -0.8 0 -1.4 0.5 -1.4 1 0 0.6 -1.2 1 -2.6 1 -2.1 0 -2.5 -0.4 -2 -1.7z"/>
  <path d="M425.9 708.2 l-3.7 -0.3 3.2 -4.9 c1.7 -2.7 3.9 -4.9 4.9 -4.9 0.9 -0.1 1.7 -0.8 1.7 -1.6 0 -0.8 0.9 -1.5 2 -1.5 2.5 0 2.5 2.2 0.1 7.5 -2.3 5.1 -3.7 6.1 -8.2 5.7z"/>
  <path d="M55 701.1 c-1.6 -3.1 -1.2 -5.1 1 -5.1 1.6 0 2 0.7 2 3.5 0 3.9 -1.4 4.6 -3 1.6z"/>
  <path d="M381.6 697.3 c-1 -6.5 -0.8 -8.3 1.3 -8.3 1.4 0 2 1 2.4 4.3 0.2 2.3 0.8 5 1.2 6 0.6 1.3 0.2 1.7 -1.8 1.7 -2 0 -2.5 -0.6 -3.1 -3.7z"/>
  <path d="M154 695.5 c0 -3.7 2.3 -5 3.3 -1.7 0.2 0.9 0.8 2.5 1.2 3.5 0.6 1.4 0.2 1.7 -1.9 1.7 -2.3 0 -2.6 -0.4 -2.6 -3.5z"/>
  <path d="M125 694.6 c0 -1.3 -0.5 -2.6 -1 -2.8 -1.6 -0.5 0.9 -6.8 2.6 -6.8 0.8 0 1.4 1 1.4 2.5 0 1.4 0.5 2.5 1 2.5 0.6 0 0.8 1.1 0.4 2.6 -0.4 1.7 -0.2 2.9 0.7 3.5 1 0.6 0.4 0.9 -1.8 0.9 -2.8 0 -3.3 -0.4 -3.3 -2.4z"/>
  <path d="M56 691.5 c0 -2.8 0.4 -3.5 2 -3.5 1.6 0 2 0.7 2 3.5 0 2.8 -0.4 3.5 -2 3.5 -1.6 0 -2 -0.7 -2 -3.5z"/>
  <path d="M149.1 691.9 c-1.4 -4.1 -1.5 -3.9 1.4 -3.9 2.2 0 2.5 0.4 2.5 3.5 0 4.5 -2.4 4.7 -3.9 0.4z"/>
  <path d="M302 693 c0 -0.5 -1.3 -1 -3 -1 -4.5 0 -3.7 -2.6 1.4 -4.9 2.5 -1.1 4.7 -2.8 5.1 -4 1.1 -3.5 3.5 -2.6 3.5 1.4 0 2.1 -0.5 3.5 -1.2 3.5 -1 0 -1 0.2 0 0.9 1.1 0.6 0.7 1.3 -1.4 3 -2.9 2.3 -4.4 2.7 -4.4 1.1z"/>
  <path d="M239.8 688.9 c-0.3 -3.6 0.4 -5.1 7.2 -15.4 4.1 -6.3 8.1 -11.5 8.8 -11.5 0.7 0 1.2 1.3 1.2 3 0 1.7 -0.4 3 -1 3 -0.5 0 -1 0.7 -1 1.5 0 0.8 -0.4 1.5 -1 1.5 -0.5 0 -1 0.7 -1 1.5 0 0.8 -0.4 1.5 -1 1.5 -0.5 0 -0.9 1 -0.8 2.3 0.2 2.1 -8.7 16.7 -10.2 16.7 -0.5 0 -1 -1.8 -1.2 -4.1z"/>
  <path d="M225.9 682.7 c-2 -2.9 -4.4 -6.4 -5.4 -7.9 l-1.7 -2.8 3.1 0 c2.8 0 3.1 0.3 3.1 3 0 2.3 0.4 3 2 3 1.1 0 2 0.7 2 1.5 0 0.8 0.5 1.5 1 1.5 0.6 0 1 1.6 1 3.5 0 1.9 -0.3 3.5 -0.7 3.5 -0.5 -0.1 -2.4 -2.4 -4.4 -5.3z"/>
  <path d="M378.5 683.3 c1.2 -6.6 4.5 -10.2 4.5 -4.9 0 5.4 -1.2 8.6 -3.2 8.6 -1.8 0 -1.9 -0.4 -1.3 -3.7z"/>
  <path d="M130 683.5 c0 -0.8 -0.7 -1.5 -1.6 -1.5 -1.9 0 -1.5 -1.6 3.2 -11.7 3.1 -6.8 5.4 -9.3 5.4 -5.8 0 1 1.1 1.5 3.5 1.5 3.1 0 3.5 0.3 3.5 2.5 0 1.4 0.5 2.5 1 2.5 0.6 0 1 1.6 1 3.5 0 4.8 -2.3 4.5 -4.3 -0.5 -0.8 -2.2 -2 -4 -2.5 -4 -0.5 0 -2.2 3.4 -3.8 7.5 -2.6 6.8 -5.4 9.9 -5.4 6z"/>
  <path d="M328 677 l0 -6 3.2 0 c2.5 0 2.9 0.3 2 1.2 -1.7 1.7 -1.5 6.8 0.5 9 1.5 1.7 1.4 1.8 -2 1.8 l-3.7 0 0 -6z"/>
  <path d="M54 680.3 c0 -0.5 1.4 -3.1 3 -6 3.8 -6.6 15 -14.7 15 -10.8 0 0.8 0.9 1.5 2 1.5 1.1 0 2 -0.4 2 -1 0 -0.5 1.6 -1 3.5 -1 2.8 0 3.5 0.4 3.5 1.9 0 1.4 -1 1.9 -4.5 2.3 -5.6 0.7 -11.9 4.9 -14.8 10 -1.9 3.3 -2.7 3.8 -5.9 3.8 -2.1 0 -3.8 -0.3 -3.8 -0.7z m10 -7.3 c0 -0.5 -0.7 -1 -1.5 -1 -0.8 0 -1.5 0.5 -1.5 1 0 0.6 0.7 1 1.5 1 0.8 0 1.5 -0.4 1.5 -1z"/>
  <path d="M97.5 673 c-1.6 -1.8 -1.6 -2 -0.2 -2 1.1 0 1.7 -0.8 1.7 -2.5 0 -3.1 1 -3.2 3.8 -0.2 2.7 2.8 2.7 3.6 0.5 5.3 -2.5 1.8 -3.7 1.7 -5.8 -0.6z"/>
  <path d="M384 671 c1.8 -3.3 13 -10.2 13 -8 0 0.6 1.4 1 3 1 1.9 0 3 0.5 3 1.4 0 1.7 -6.3 4.2 -6.8 2.6 -0.6 -1.7 -5.2 -1.2 -5.2 0.6 0 2.3 -2.5 4.4 -5.5 4.4 -2.2 0 -2.4 -0.2 -1.5 -2z"/>
  <path d="M417.3 669.3 c-4.4 -2.2 -4.3 -4.3 0.2 -4.3 3.2 0 3.5 0.2 3.5 3 0 1.7 -0.1 3 -0.2 2.9 -0.2 0 -1.8 -0.8 -3.5 -1.6z"/>
  <path d="M357 668.9 c-3.2 -1.3 -3.2 -1.3 -2.4 -4.3 1.2 -4.9 7.7 -2.3 6.7 2.7 -0.6 3 -0.7 3 -4.3 1.6z"/>
  <path d="M214.3 665.6 c-2 -3.1 -2 -3.4 -0.5 -3.8 3 -0.8 4.2 0.3 4.2 3.8 0 4.3 -0.9 4.3 -3.7 0z"/>
  <path d="M303 665.5 c0 -3.1 1.1 -3.2 4.7 0 l2.8 2.4 -3.7 0.1 c-3.4 0 -3.8 -0.3 -3.8 -2.5z"/>
  <path d="M88.8 665.3 c-2.2 -0.6 -2.4 -4.3 -0.3 -4.3 2.5 0 8.5 2.8 8.5 3.9 0 1.1 -4.9 1.3 -8.2 0.4z"/>
  <path d="M259 663.6 c0 -0.7 0.9 -1.6 1.9 -1.9 1.7 -0.4 1.8 -0.2 0.8 1.4 -1.4 2.2 -2.7 2.5 -2.7 0.5z"/>
  <path d="M306 540.2 c0 -1.4 1.4 -2 7 -3 3.9 -0.7 7.9 -1.2 9 -1.2 2.7 0 2.5 2.8 -0.2 3.5 -13.8 3.1 -15.8 3.2 -15.8 0.7z"/>
  <path d="M211.8 536.3 c-3.3 -0.8 -2 -3.3 1.7 -3.3 2.8 0 3.5 0.4 3.5 2 0 2 -1.4 2.3 -5.2 1.3z"/>
  <path d="M250 535 c0 -1.6 0.7 -2 3.5 -2 2.8 0 3.5 0.4 3.5 2 0 1.6 -0.7 2 -3.5 2 -2.8 0 -3.5 -0.4 -3.5 -2z"/>
  <path d="M241 534 c0 -1.6 0.7 -2 3.5 -2 2.8 0 3.5 0.4 3.5 2 0 1.6 -0.7 2 -3.5 2 -2.8 0 -3.5 -0.4 -3.5 -2z"/>
  <path d="M340 532.6 c0 -1.8 0.8 -2.5 3.9 -3.4 2.1 -0.7 5.1 -1.2 6.5 -1.2 4.6 0 2.5 2.3 -4.2 4.7 l-6.2 2.2 0 -2.3z"/>
  <path d="M217.3 531.3 c-1.6 -0.3 -2.3 -1.1 -2.3 -2.8 0 -1.5 0.5 -2.3 1.3 -2 0.6 0.2 3.1 0.9 5.5 1.5 5.2 1.3 5.9 4.1 1 3.9 -1.8 -0.1 -4.3 -0.4 -5.5 -0.6z"/>
  <path d="M328 528.5 c0 -0.8 0.2 -1.5 0.3 -1.5 0.2 0 4.7 -1.3 10 -2.9 l9.7 -2.9 0 2.2 c0 1.8 -0.9 2.5 -3.9 3.4 -2.1 0.7 -5 1.2 -6.5 1.2 -1.4 0 -2.6 0.5 -2.6 1 0 0.6 -1.6 1 -3.5 1 -2.4 0 -3.5 -0.5 -3.5 -1.5z"/>
  <path d="M354 527.5 c0 -2 0.5 -2.5 2.5 -2.5 1.4 0 2.5 -0.4 2.5 -1 0 -0.5 1.6 -1 3.5 -1 1.9 0 3.5 0.4 3.5 0.9 0 1.2 -0.5 1.5 -6.8 4 l-5.2 2.1 0 -2.5z"/>
  <path d="M185.8 527.7 c-4 -1.6 -3.6 -3.7 0.7 -3.7 3.1 0 3.5 0.3 3.5 2.5 0 2.7 -0.2 2.8 -4.2 1.2z"/>
  <path d="M196.8 525.3 c-1 -0.2 -1.8 -0.9 -1.8 -1.4 0 -0.5 -1.1 -0.9 -2.5 -0.9 -2 0 -2.5 -0.5 -2.5 -2.5 l0 -2.4 7.5 2.6 c7.9 2.8 10 5.4 4.3 5.2 -1.8 -0.1 -4.1 -0.3 -5 -0.6z"/>
  <path d="M169.8 520.3 c-2.7 -1.4 -4.8 -3 -4.8 -3.5 0 -0.4 1.6 -0.8 3.5 -0.8 1.9 0 3.5 0.5 3.5 1 0 0.6 0.9 1 2 1 1.5 0 2 0.7 2 2.5 0 3.1 -0.4 3.1 -6.2 -0.2z"/>
  <path d="M214.3 520.2 c-3.4 -0.9 -5.3 -2 -5.3 -3 0 -1.2 1 -1.4 5.1 -0.9 6 0.7 6.2 0.9 5.7 3.5 -0.3 1.8 -0.5 1.8 -5.5 0.4z"/>
  <path d="M372 519.7 c0 -1.7 1.1 -2.8 4.5 -4.5 2.5 -1.2 5.4 -2.2 6.5 -2.2 1.1 0 2 -0.6 2 -1.4 0 -1.6 2.1 -2.6 5.6 -2.6 1.5 0 2.4 -0.6 2.4 -1.5 0 -1.1 -1.2 -1.5 -4.5 -1.5 -5.2 0 -5.8 -1.3 -1.5 -3.5 1.7 -0.9 3 -2.3 3 -3.1 0 -1.2 0.6 -1.5 2.3 -1 1.2 0.3 2.8 0.6 3.5 0.6 0.7 0 1.2 1.3 1.2 3 0 2 0.5 3 1.5 3 1 0 1.5 1.1 1.5 3.5 0 3.9 -0.2 4 -2.8 2.4 -1.5 -0.9 -2.6 -0.7 -5.8 1.4 -4.2 2.6 -18 9.7 -18.9 9.7 -0.3 0 -0.5 -1 -0.5 -2.3z"/>
  <path d="M216.3 514.3 c-1.7 -0.3 -2.3 -1.1 -2.3 -3 0 -1.8 0.4 -2.4 1.4 -2 0.8 0.3 3.3 1.1 5.5 1.7 5.1 1.3 5.7 4.1 0.9 3.9 -1.8 -0.1 -4.3 -0.4 -5.5 -0.6z"/>
  <path d="M173.8 504.4 c-3.8 -1.9 -6.8 -3.9 -6.8 -4.4 0 -0.6 1.6 -1 3.5 -1 1.9 0 3.5 0.5 3.5 1 0 0.6 0.9 1 2 1 1.1 0 2 0.5 2 1 0 0.6 0.9 1 2 1 1.5 0 2 0.7 2 2.5 0 1.4 -0.3 2.5 -0.7 2.5 -0.5 -0.1 -3.8 -1.7 -7.5 -3.6z"/>
  <path d="M193 504.5 c0 -2.9 -0.2 -2.8 3.9 -1.4 4.3 1.5 4.1 3.9 -0.4 3.9 -3.1 0 -3.5 -0.3 -3.5 -2.5z"/>
  <path d="M226.2 503.4 c-10.9 -3.2 -15.2 -5 -15.2 -6.5 0 -1.5 9.3 -0.6 9.8 1 0.2 0.6 1.7 1.1 3.3 1.1 1.6 0 2.9 0.5 2.9 1 0 0.6 1.1 1 2.4 1 5.2 0 8.6 1.2 8.6 3.1 0 2.5 -1.6 2.4 -11.8 -0.7z"/>
  <path d="M160.8 497.2 c-3.7 -2.2 -3.5 -3.2 0.7 -3.2 3.1 0 3.5 0.3 3.5 2.5 0 2.9 -0.6 3 -4.2 0.7z"/>
  <path d="M203.3 495 c-5.1 -2.3 -5.5 -4 -1 -4 4.2 0 6 1.2 5.5 3.8 l-0.3 2.1 -4.2 -1.9z"/>
  <path d="M225 494.5 c0 -2.9 -0.2 -2.8 3.9 -1.4 4.3 1.5 4.1 3.9 -0.4 3.9 -3.1 0 -3.5 -0.3 -3.5 -2.5z"/>
  <path d="M166 492.5 c0 -0.9 -0.9 -1.5 -2.5 -1.5 -2.1 0 -2.5 -0.5 -2.5 -3 l0 -3.1 4.8 2.7 c8.5 4.9 9.4 6.4 3.7 6.4 -2.4 0 -3.5 -0.5 -3.5 -1.5z"/>
  <path d="M213 492 c0 -0.5 -1.1 -1 -2.5 -1 -2 0 -2.5 -0.5 -2.5 -2.5 0 -1.4 0.2 -2.5 0.4 -2.5 0.2 0 2.9 1 6 2.1 6.4 2.5 7.5 4.9 2.1 4.9 -1.9 0 -3.5 -0.4 -3.5 -1z"/>
  <path d="M273.3 492.3 c-2.8 -1.1 -1.3 -3.3 2.2 -3.3 2.8 0 3.5 0.4 3.5 2 0 2 -2.6 2.6 -5.7 1.3z"/>
  <path d="M264.8 491.3 c-3.3 -0.8 -2 -3.3 1.7 -3.3 2.8 0 3.5 0.4 3.5 2 0 2 -1.4 2.3 -5.2 1.3z"/>
  <path d="M375.5 488.2 c-2.7 -1.3 -7.5 -2.7 -10.7 -3 -4 -0.3 -5.8 -0.9 -5.8 -1.9 0 -0.7 -1 -2.9 -2.2 -4.8 -1.7 -2.6 -3 -3.5 -5 -3.5 -3 0 -3.7 -1.4 -1.4 -2.7 0.7 -0.4 2.6 -3.3 4.1 -6.3 3.3 -6.5 7.5 -12 9.3 -12 0.7 0 1.6 0.8 1.9 1.8 0.4 0.9 4.4 7.7 9 15.1 6.1 9.8 8.3 14.2 8.3 16.7 0 4 -0.7 4 -7.5 0.6z"/>
  <path d="M324 488 c0 -1.6 0.7 -2 3.5 -2 3.7 0 4.9 2.2 1.9 3.4 -3.2 1.2 -5.4 0.6 -5.4 -1.4z"/>
  <path d="M340 484.4 c0 -2.1 0.5 -2.4 3.5 -2.4 2.2 0 3.5 0.5 3.5 1.3 0 0.8 -1.6 1.8 -3.5 2.4 -3.3 1.1 -3.5 1 -3.5 -1.3z"/>
  <path d="M197 485 c0 -0.5 -0.9 -1 -2 -1 -1.6 0 -2 -0.7 -2 -3 l0 -3 5.5 2.7 c6.4 3.1 7.2 5.3 2 5.3 -1.9 0 -3.5 -0.4 -3.5 -1z"/>
  <path d="M152 481.9 l0 -3.1 3.2 2.1 c4.5 2.8 4.6 4.1 0.4 4.1 -3.4 0 -3.6 -0.2 -3.6 -3.1z"/>
  <path d="M180.8 483.2 c-3.7 -2.2 -3.5 -3.2 0.7 -3.2 3.1 0 3.5 0.3 3.5 2.5 0 2.9 -0.6 3 -4.2 0.7z"/>
  <path d="M231.1 483.2 c-5.7 -2.2 -6.5 -4.2 -1.7 -4.2 2 0 3.6 0.5 3.6 1 0 0.6 1.4 1 3 1 2.3 0 3 0.4 3 2 0 2.4 -1.9 2.5 -7.9 0.2z"/>
  <path d="M264 482.9 c0 -1.7 0.5 -2 3.2 -1.7 2.2 0.2 3.4 0.9 3.6 2.1 0.3 1.4 -0.4 1.7 -3.2 1.7 -3 0 -3.6 -0.4 -3.6 -2.1z"/>
  <path d="M136.5 479.9 c-8.5 -6.9 -8.5 -6.9 -4.2 -6.9 3.3 0 3.7 0.3 3.7 2.5 0 2.1 0.5 2.5 3 2.5 2.7 0 3 0.3 3 3 0 1.7 -0.1 3 -0.3 3 -0.1 0 -2.5 -1.8 -5.2 -4.1z"/>
  <path d="M323 481.6 c0 -1.5 2.1 -2.6 5.1 -2.6 1.2 0 1.9 0.7 1.9 2 0 1.6 -0.7 2 -3.5 2 -2.3 0 -3.5 -0.5 -3.5 -1.4z"/>
  <path d="M246.3 481.3 c-1.6 -0.3 -2.3 -1.1 -2.3 -2.8 0 -1.5 0.5 -2.3 1.3 -2 0.6 0.2 3.1 0.9 5.5 1.5 5.2 1.3 5.9 4.1 1 3.9 -1.8 -0.1 -4.3 -0.4 -5.5 -0.6z"/>
  <path d="M335 478.6 c0 -0.8 1.4 -1.9 3.1 -2.5 4.1 -1.4 3.9 -1.5 3.9 1.4 0 2.2 -0.4 2.5 -3.5 2.5 -2.3 0 -3.5 -0.5 -3.5 -1.4z"/>
  <path d="M165.5 472.6 c-3.8 -3 -9 -7.3 -11.5 -9.5 l-4.5 -4 3.8 -0.1 c3.5 0 3.7 0.2 3.7 3 0 2.8 0.3 3 3.5 3 2.8 0 3.5 0.4 3.5 2 0 1.5 0.7 2 2.5 2 1.6 0 2.5 0.6 2.5 1.5 0 0.8 0.9 1.5 2 1.5 1.6 0 2 0.7 2 3 0 1.7 -0.1 3 -0.2 3 -0.2 0 -3.4 -2.5 -7.3 -5.4z"/>
  <path d="M210.3 474.5 c-6.1 -2.8 -6.8 -4.5 -1.8 -4.5 1.9 0 3.5 0.5 3.5 1 0 0.6 0.9 1 2 1 1.5 0 2 0.7 2 2.5 0 1.4 -0.1 2.5 -0.2 2.5 -0.2 0 -2.7 -1.1 -5.5 -2.5z"/>
  <path d="M228 475 c0 -0.5 -1.1 -1 -2.5 -1 -1.4 0 -2.5 -0.4 -2.5 -1 0 -0.5 -0.9 -1 -1.9 -1 -3.5 0 -5.1 -1.2 -5.1 -3.7 0 -2.7 1.3 -2.6 8 0.7 1.9 0.9 5.2 2.3 7.3 2.9 4.8 1.6 5 4.1 0.2 4.1 -1.9 0 -3.5 -0.4 -3.5 -1z"/>
  <path d="M134 467.3 l0 -3.7 3.5 3.4 c1.9 1.9 3.5 3.5 3.5 3.7 0 0.2 -1.6 0.3 -3.5 0.3 -3.4 0 -3.5 -0.1 -3.5 -3.7z"/>
  <path d="M172 467.4 l0 -3.5 3.5 2.7 c1.9 1.4 3.5 3 3.5 3.5 0 0.5 -1.6 0.9 -3.5 0.9 -3.3 0 -3.5 -0.2 -3.5 -3.6z"/>
  <path d="M194.3 465.8 c-4.2 -2.6 -4.2 -3.8 0.2 -3.8 3.2 0 3.5 0.2 3.5 3 0 1.7 -0.1 3 -0.2 2.9 -0.2 0 -1.8 -1 -3.5 -2.1z"/>
  <path d="M285.3 465.3 c-2.8 -1.1 -1.3 -3.3 2.2 -3.3 2.8 0 3.5 0.4 3.5 2 0 2 -2.6 2.6 -5.7 1.3z"/>
  <path d="M202 460.9 c0 -1.7 0.3 -2.9 0.8 -2.7 5 2.4 6.2 3.3 6.2 4.5 0 0.8 -1.2 1.3 -3.5 1.3 -3.2 0 -3.5 -0.2 -3.5 -3.1z"/>
  <path d="M276.8 463.3 c-3.3 -0.8 -2 -3.3 1.7 -3.3 2.8 0 3.5 0.4 3.5 2 0 2 -1.4 2.3 -5.2 1.3z"/>
  <path d="M162 459.4 l0 -3.6 3.4 2.9 c4.4 3.6 4.4 4.3 0.1 4.3 -3.4 0 -3.5 -0.2 -3.5 -3.6z"/>
  <path d="M185.3 459.8 c-4.2 -2.9 -4.1 -3.8 0.2 -3.8 3.2 0 3.5 0.2 3.5 3 0 1.7 -0.1 3 -0.3 3 -0.1 0 -1.7 -1 -3.4 -2.2z"/>
  <path d="M242.5 456.9 c-1.1 -1.7 -0.2 -1.8 1.9 -0.3 1.7 1.2 1.7 1.4 0.4 1.4 -0.9 0 -2 -0.5 -2.3 -1.1z"/>
  <path d="M256.3 456.5 c-4.3 -1.8 -4.2 -3.5 0.2 -3.5 3.1 0 3.5 0.3 3.5 2.5 0 1.4 -0.1 2.5 -0.2 2.5 -0.2 -0.1 -1.8 -0.7 -3.5 -1.5z"/>
  <path d="M307 453.5 c0 -2.2 0.4 -2.5 3.5 -2.5 4.5 0 4.7 2.4 0.4 3.9 -4.1 1.4 -3.9 1.5 -3.9 -1.4z"/>
  <path d="M188 452 c0 -3.6 0.3 -3.6 4.1 -0.9 3.8 2.7 3.7 3.9 -0.6 3.9 -3.2 0 -3.5 -0.2 -3.5 -3z"/>
  <path d="M240.2 449.5 c-4 -1.9 -7.2 -3.9 -7.2 -4.5 0 -1.7 5.7 -1.1 10.5 1.2 3.4 1.7 4.5 2.8 4.5 4.5 0 1.3 -0.1 2.3 -0.3 2.3 -0.1 0 -3.5 -1.6 -7.5 -3.5z"/>
  <path d="M114 447.5 c0 -4.3 0.7 -4.3 4.3 0.1 l2.9 3.4 -3.6 0 c-3.4 0 -3.6 -0.1 -3.6 -3.5z"/>
  <path d="M325 448.4 c0 -2.1 0.5 -2.4 3.5 -2.4 2.2 0 3.5 0.5 3.5 1.3 0 0.8 -1.6 1.8 -3.5 2.4 -3.3 1.1 -3.5 1 -3.5 -1.3z"/>
  <path d="M255 449 c0 -0.5 -1.1 -1 -2.5 -1 -2 0 -2.5 -0.5 -2.5 -2.6 0 -1.4 0.4 -2.4 0.8 -2.2 0.4 0.2 3.1 1.2 6 2.2 6.1 2.3 6.9 4.6 1.7 4.6 -1.9 0 -3.5 -0.4 -3.5 -1z"/>
  <path d="M296.2 448.3 c0.2 -1 1.6 -2 3.6 -2.4 2.9 -0.6 3.2 -0.4 3.2 1.7 0 2.1 -0.5 2.4 -3.6 2.4 -2.8 0 -3.5 -0.4 -3.2 -1.7z"/>
  <path d="M102 444.8 c-0.8 -1.3 -1.9 -2.8 -2.3 -3.5 -0.6 -1 0 -1.3 2.3 -1.3 2.8 0 3 0.3 3 3.5 0 4 -0.9 4.4 -3 1.3z"/>
  <path d="M338 443.5 c0 -2.2 0.4 -2.5 3.6 -2.5 4.4 0 4.2 1.8 -0.4 3.7 -3.1 1.3 -3.2 1.2 -3.2 -1.2z"/>
  <path d="M317 443.6 c0 -0.8 2.1 -2.1 4.7 -3 5.8 -2 5.3 -2 5.3 0.8 0 1.6 -0.7 2.6 -2.2 3 -4.1 1.1 -7.8 0.7 -7.8 -0.8z"/>
  <path d="M423 441.4 c0 -3.2 0.1 -3.4 1.6 -2 1.1 1.1 3.5 1.6 8 1.6 5.7 0 6.4 0.2 6.4 2 0 1.8 -0.7 2 -8 2 l-8 0 0 -3.6z"/>
  <path d="M442.2 442.3 c0.2 -1.2 2 -2 6.6 -2.8 6.1 -1.1 6.2 -1.1 6.2 1 0 1.9 -0.7 2.3 -4.6 2.9 -7.3 1 -8.6 0.8 -8.2 -1.1z"/>
  <path d="M222.3 439.7 c-4.2 -2.8 -4.1 -3.7 0.2 -3.7 3.2 0 3.5 0.2 3.5 3 0 1.7 -0.1 3 -0.2 2.9 -0.2 0 -1.8 -1 -3.5 -2.2z"/>
  <path d="M106 439 c0 -1.1 -0.7 -2 -1.5 -2 -1.1 0 -1.5 -1.1 -1.5 -3.6 0 -2 0.4 -3.4 0.9 -3.2 0.9 0.3 8.1 9.5 8.1 10.3 0 0.3 -1.3 0.5 -3 0.5 -2.3 0 -3 -0.4 -3 -2z"/>
  <path d="M125.9 430.7 c-6.4 -9.2 -14.7 -24.5 -17.8 -32.4 l-2.1 -5.3 2.4 0 c2.4 0 3.6 1.7 3.6 5 0 1 0.4 2 0.9 2.2 1.6 0.6 6.1 10.7 6.1 13.8 0 2.3 0.4 3 2 3 1.5 0 2 0.7 2 2.5 0 1.6 0.6 2.5 1.5 2.5 0.8 0 1.5 0.7 1.5 1.5 0 0.8 0.5 1.5 1 1.5 0.6 0 1 0.7 1 1.5 0 0.8 0.5 1.5 1 1.5 0.6 0 1 0.9 1 2 0 1.1 0.7 2 1.5 2 1 0 1.5 1.1 1.5 3.5 0 1.9 -0.3 3.5 -0.7 3.5 -0.5 0 -3.3 -3.7 -6.4 -8.3z"/>
  <path d="M230 434.9 l0 -3.1 3.2 1.9 c4.6 2.6 4.7 4.3 0.4 4.3 -3.4 0 -3.6 -0.2 -3.6 -3.1z"/>
  <path d="M338 435.6 c0 -0.8 1.5 -1.9 3.3 -2.5 1.7 -0.6 7.1 -3.3 12 -6 l8.7 -4.9 0 2.9 c0 2.6 -0.3 2.9 -3.5 2.9 -2.8 0 -3.5 0.4 -3.5 2 0 1.3 -0.7 2 -2 2 -1.1 0 -2 0.4 -2 0.8 0 0.5 -1.6 1.6 -3.5 2.5 -4.4 2.1 -9.5 2.3 -9.5 0.3z"/>
  <path d="M468 435.6 c0 -0.7 0.8 -1.6 1.8 -1.9 0.9 -0.2 2.5 -0.8 3.5 -1.2 1.4 -0.6 1.7 -0.2 1.7 1.9 0 2.3 -0.4 2.6 -3.5 2.6 -2.3 0 -3.5 -0.5 -3.5 -1.4z"/>
  <path d="M93.2 432.5 l-2.2 -3.5 3 0 c2.8 0 3 0.3 3 3.5 0 4.4 -0.9 4.4 -3.8 0z"/>
  <path d="M358 433.5 c0 -2 0.5 -2.5 2.5 -2.5 1.6 0 2.5 -0.6 2.5 -1.5 0 -1 1.1 -1.5 3.5 -1.5 1.9 0 3.5 0.3 3.5 0.8 0 0.7 -10.2 7.2 -11.4 7.2 -0.3 0 -0.6 -1.1 -0.6 -2.5z"/>
  <path d="M420.8 427.3 c-1.4 -3.8 -2.8 -7.5 -3.1 -8.3 -0.5 -1.1 5.8 -5.7 24.5 -18 13.9 -9.1 30.5 -20 36.9 -24.2 l11.7 -7.8 11.1 0 c9.9 0 11.1 0.2 11.1 1.8 0 0.9 -1.5 2.6 -3.4 3.7 -1.9 1.1 -7.6 4.8 -12.6 8.3 -5.1 3.4 -9.5 6.2 -9.7 6.2 -0.2 0 -0.9 0.5 -1.6 1 -0.7 0.6 -3.7 2.7 -6.7 4.7 -3 2 -6.1 4.3 -6.8 5 -0.7 0.7 -1.9 1.3 -2.6 1.3 -0.7 0 -3 1.5 -5.2 3.4 -2.1 1.8 -4.9 3.6 -6.1 4 -1.3 0.4 -2.3 1.2 -2.3 1.7 0 0.5 -0.5 0.9 -1 0.9 -0.6 0 -5.8 3.2 -11.6 7 -5.8 3.9 -10.9 7 -11.3 7 -1.4 0 -6.1 5.6 -6.1 7.3 0 4 -2.9 1.2 -5.2 -5z"/>
  <path d="M134 431 c0 -1.1 -0.7 -2 -1.5 -2 -1 0 -1.5 -1.1 -1.5 -3.5 0 -1.9 0.4 -3.5 0.8 -3.5 0.8 0 8.2 9.5 8.2 10.5 0 0.3 -1.3 0.5 -3 0.5 -2.3 0 -3 -0.4 -3 -2z"/>
  <path d="M206.6 428.4 c-3.1 -2.5 -5.6 -4.7 -5.6 -5 0 -0.2 1.6 -0.4 3.5 -0.4 2.8 0 3.5 0.4 3.5 2 0 1.5 0.7 2 2.5 2 2.1 0 2.5 0.5 2.5 3 0 1.7 -0.2 3 -0.4 3 -0.2 0 -2.9 -2 -6 -4.6z"/>
  <path d="M222 430 c0 -3.6 0.3 -3.6 4.1 -0.9 3.8 2.7 3.7 3.9 -0.6 3.9 -3.2 0 -3.5 -0.2 -3.5 -3z"/>
  <path d="M86.1 421 l-4 -7 2.8 0 c2.9 0 4.1 1.5 4.1 5.1 0 1 0.7 1.9 1.5 1.9 1 0 1.5 1.1 1.5 3.5 0 1.9 -0.4 3.5 -0.9 3.5 -0.5 0 -2.7 -3.1 -5 -7z"/>
  <path d="M372 425 c0 -2.8 0.3 -3 3.5 -3 4.4 0 4.4 0.9 0 3.8 l-3.5 2.2 0 -3z"/>
  <path d="M486 427.3 c0 -0.5 2.6 -2.5 5.8 -4.5 3.1 -2 8.3 -6 11.5 -8.8 l5.7 -5.2 0 3.6 c0 3.3 -0.2 3.6 -3 3.6 -2.5 0 -3 0.4 -3 2.5 0 1.8 -0.5 2.5 -2 2.5 -1.1 0 -2 0.7 -2 1.5 0 1 -1 1.5 -3 1.5 -2.3 0 -3 0.4 -3 2 0 1.6 -0.7 2 -3.5 2 -1.9 0 -3.5 -0.3 -3.5 -0.7z"/>
  <path d="M212 422.4 l0 -3.5 3.5 2.7 c1.9 1.4 3.5 3 3.5 3.5 0 0.5 -1.6 0.9 -3.5 0.9 -3.3 0 -3.5 -0.2 -3.5 -3.6z"/>
  <path d="M123 412.4 c0 -4.2 1.3 -4.1 4.1 0.4 l2.1 3.2 -3.1 0 c-2.9 0 -3.1 -0.2 -3.1 -3.6z"/>
  <path d="M381 412.5 c0 -0.8 1.7 -1.9 4.3 -2.5 2.3 -0.6 4.8 -1.3 5.5 -1.5 0.7 -0.3 1.2 0.5 1.2 1.9 0 1.8 -0.7 2.5 -3.1 3 -5.2 1 -7.9 0.7 -7.9 -0.9z"/>
  <path d="M86.2 408.5 c-2.2 -4.7 -3 -10.5 -1.3 -10.5 0.6 0 2.7 3.4 4.9 7.5 l3.9 7.5 -2.6 0 c-2.2 0 -3.1 -0.8 -4.9 -4.5z"/>
  <path d="M274 409 c0 -1.6 0.7 -2 3.5 -2 3.7 0 4.9 2.2 1.9 3.4 -3.2 1.2 -5.4 0.6 -5.4 -1.4z"/>
  <path d="M351 409 c0 -1.6 0.7 -2 3.5 -2 4 0 4.9 2.4 1.3 3.4 -3.8 1 -4.8 0.7 -4.8 -1.4z"/>
  <path d="M369 407 c0 -1.6 0.7 -2 3.5 -2 3.7 0 4.9 2.2 1.9 3.4 -3.2 1.2 -5.4 0.6 -5.4 -1.4z"/>
  <path d="M204.3 406.9 c-3.8 -1.1 -4.5 -3.9 -0.9 -3.9 5.2 0 8.6 1.2 8.6 3.1 0 2.1 -2.3 2.3 -7.7 0.8z"/>
  <path d="M300 405 c0 -1.6 0.7 -2 3.5 -2 2.8 0 3.5 0.4 3.5 2 0 1.6 -0.7 2 -3.5 2 -2.8 0 -3.5 -0.4 -3.5 -2z"/>
  <path d="M229 403 c0 -1.6 0.7 -2 3.5 -2 2.8 0 3.5 0.4 3.5 2 0 1.6 -0.7 2 -3.5 2 -2.8 0 -3.5 -0.4 -3.5 -2z"/>
  <path d="M75.5 400 c-2 -3.8 -1.9 -4 1 -4 2.2 0 2.5 0.4 2.5 3.5 0 4.3 -1.4 4.5 -3.5 0.5z"/>
  <path d="M405.7 402.2 c-0.6 -0.9 -1.9 -1.1 -3.8 -0.7 -2.7 0.6 -2.9 0.5 -2.9 -2.4 0 -2.9 0.3 -3.1 3.5 -3.1 3.8 0 4.9 1.3 4.3 5.2 -0.2 1.7 -0.5 1.9 -1.1 1z"/>
  <path d="M175.7 398.4 l-2.9 -3.4 3.6 0 c3.4 0 3.6 0.1 3.6 3.5 0 4.3 -0.7 4.3 -4.3 -0.1z"/>
  <path d="M284.2 400.3 c0.2 -1 1.6 -2 3.6 -2.4 2.9 -0.6 3.2 -0.4 3.2 1.7 0 2.1 -0.5 2.4 -3.6 2.4 -2.8 0 -3.5 -0.4 -3.2 -1.7z"/>
  <path d="M362 400 c0 -1.6 0.7 -2 3.5 -2 2.8 0 3.5 0.4 3.5 2 0 1.6 -0.7 2 -3.5 2 -2.8 0 -3.5 -0.4 -3.5 -2z"/>
  <path d="M516.9 400.2 c0.5 -0.9 1.9 -2.6 3 -3.6 2.1 -1.9 2.1 -1.9 2.1 1.7 0 3.4 -0.2 3.7 -3 3.7 -2.6 0 -2.9 -0.3 -2.1 -1.8z"/>
  <path d="M292 398.5 c0 -0.8 0.1 -1.5 0.3 -1.5 0.1 0 3.2 -0.9 7 -1.9 l6.7 -2 0 2.5 c0 2.1 -0.5 2.4 -3.5 2.4 -1.9 0 -3.5 0.5 -3.5 1 0 0.6 -1.6 1 -3.5 1 -2.4 0 -3.5 -0.5 -3.5 -1.5z"/>
  <path d="M374 398.5 c0 -0.9 1.1 -2 2.4 -2.5 1.3 -0.5 2.7 -1.4 3.1 -1.9 0.3 -0.6 1.5 -1.1 2.6 -1.1 1 0 1.9 -0.4 1.9 -1 0 -1.1 4.6 -1.3 10.3 -0.4 3.4 0.6 3.7 0.9 3.7 4.1 l0 3.5 -7 -0.7 c-4.9 -0.5 -7 -0.4 -7 0.4 0 0.7 -2 1.1 -5 1.1 -3.8 0 -5 -0.4 -5 -1.5z"/>
  <path d="M199 396.5 c0 -2.9 -0.2 -2.8 3.9 -1.4 4.3 1.5 4.1 3.9 -0.4 3.9 -3.1 0 -3.5 -0.3 -3.5 -2.5z"/>
  <path d="M114 394.5 c0 -4.5 2.4 -4.7 3.9 -0.4 1.4 4.1 1.5 3.9 -1.4 3.9 -2.2 0 -2.5 -0.4 -2.5 -3.5z"/>
  <path d="M261.2 391.5 c-5.1 -2.4 -9.2 -4.9 -9.2 -5.5 0 -0.5 1.6 -1 3.5 -1 2.4 0 3.5 0.5 3.5 1.5 0 1 1 1.5 3 1.5 2 0 3 0.5 3 1.5 0 1 1 1.5 3 1.5 2.5 0 3 0.4 3 2.5 0 1.4 -0.1 2.5 -0.3 2.5 -0.2 0 -4.5 -2 -9.5 -4.5z"/>
  <path d="M185.8 394.3 c-1.1 -0.3 -1.8 -1.4 -1.8 -2.9 0 -1.3 0.1 -2.4 0.3 -2.4 2.3 0 9.7 3.5 9.7 4.6 0 1.4 -4.3 1.8 -8.2 0.7z"/>
  <path d="M103.3 385.5 l-2.1 -6.5 2.4 0 c2 0 2.4 0.5 2.4 3 0 1.7 0.5 3 1 3 0.6 0 1 1.6 1 3.5 0 5.7 -2.4 4.1 -4.7 -3z"/>
  <path d="M278 391 c0 -0.5 -1.1 -1 -2.5 -1 -1.6 0 -2.5 -0.6 -2.5 -1.5 0 -1 -1 -1.5 -3.4 -1.5 -1.9 0 -4.1 -0.7 -5 -1.5 -0.8 -0.8 -2.2 -1.5 -3 -1.5 -1.1 0 -1.6 -0.9 -1.6 -2.9 l0 -3 11.3 5.4 c6.1 3 11.8 5.5 12.5 5.5 0.6 0 1.2 0.7 1.2 1.5 0 1 -1.1 1.5 -3.5 1.5 -1.9 0 -3.5 -0.4 -3.5 -1z"/>
  <path d="M78 387.5 c0 -3.7 2.3 -5 3.3 -1.7 0.2 0.9 0.8 2.5 1.2 3.5 0.6 1.4 0.2 1.7 -1.9 1.7 -2.3 0 -2.6 -0.4 -2.6 -3.5z"/>
  <path d="M157.8 387.4 c-3.2 -2 -5.8 -4 -5.8 -4.5 0 -0.5 1.6 -0.9 3.5 -0.9 1.9 0 3.5 0.4 3.5 0.9 0 0.5 1.1 1.2 2.5 1.5 2 0.5 2.5 1.3 2.5 3.6 0 1.7 -0.1 3 -0.2 3 -0.2 0 -2.9 -1.7 -6 -3.6z"/>
  <path d="M174 384 c0 -2.3 -0.4 -3 -2 -3 -1.1 0 -2 -0.7 -2 -1.5 0 -0.8 -0.4 -1.5 -1 -1.5 -0.5 0 -1 -0.5 -1 -1.1 0 -0.6 -0.7 -1.7 -1.5 -2.5 -1.6 -1.6 -2.1 -8.4 -0.6 -8.4 0.7 0 7.9 10.6 13.4 19.7 0.6 1 0 1.3 -2.3 1.3 -2.7 0 -3 -0.3 -3 -3z"/>
  <path d="M526 386.5 c0 -1.4 3.2 -6.5 4 -6.5 0.6 0 1 1.6 1 3.5 0 3.1 -0.3 3.5 -2.5 3.5 -1.4 0 -2.5 -0.2 -2.5 -0.5z"/>
  <path d="M147 380 l-3.5 -2.9 3.8 -0.1 c3.5 0 3.7 0.2 3.7 3 0 1.7 -0.1 3 -0.3 3 -0.1 0 -1.8 -1.3 -3.7 -3z"/>
  <path d="M108 377.5 c0 -1.9 -0.4 -3.5 -1 -3.5 -0.5 0 -1 -1.6 -1 -3.5 0 -2.4 0.5 -3.5 1.5 -3.5 0.8 0 1.5 0.1 1.5 0.3 0 0.1 0.9 3.2 1.9 7 l2 6.7 -2.5 0 c-2.1 0 -2.4 -0.5 -2.4 -3.5z"/>
  <path d="M236.3 376.7 c-4.2 -2.8 -4.1 -3.7 0.2 -3.7 3.2 0 3.5 0.2 3.5 3 0 1.7 -0.1 3 -0.2 2.9 -0.2 0 -1.8 -1 -3.5 -2.2z"/>
  <path d="M251 375.9 c0 -1.7 0.3 -2.9 0.8 -2.7 5 2.4 6.2 3.3 6.2 4.5 0 0.8 -1.2 1.3 -3.5 1.3 -3.2 0 -3.5 -0.2 -3.5 -3.1z"/>
  <path d="M66.3 374.5 c-1.1 -3.3 -1 -3.5 1.3 -3.5 2.1 0 2.4 0.5 2.4 3.5 0 2.2 -0.5 3.5 -1.3 3.5 -0.8 0 -1.8 -1.6 -2.4 -3.5z"/>
  <path d="M99.1 371.3 c-1.6 -5.5 -1.4 -7.3 0.8 -7.3 1.9 0 3.1 3.4 3.1 8.6 0 3.8 -2.8 2.9 -3.9 -1.3z"/>
  <path d="M156.7 370.5 l-1.7 -3.5 3 0 c2.8 0 3 0.3 3 3.5 0 2.2 -0.5 3.5 -1.3 3.5 -0.7 0 -2.1 -1.6 -3 -3.5z"/>
  <path d="M72 369.5 c0 -2.4 0.5 -3.5 1.5 -3.5 0.8 0 1.5 0.1 1.5 0.3 0 0.1 0.4 1.7 0.9 3.5 0.9 3 0.8 3.2 -1.5 3.2 -2.1 0 -2.4 -0.5 -2.4 -3.5z"/>
  <path d="M146 369.9 l0 -3.1 3.2 2.1 c4.5 2.8 4.6 4.1 0.4 4.1 -3.4 0 -3.6 -0.2 -3.6 -3.1z"/>
  <path d="M227.8 370 l-3.3 -2.9 3.8 -0.1 c3.5 0 3.7 0.2 3.7 3 0 1.7 -0.2 3 -0.5 3 -0.3 0 -1.9 -1.3 -3.7 -3z"/>
  <path d="M523 367.6 c0 -0.8 1.4 -1.9 3.1 -2.5 4.4 -1.5 4.6 -1.4 1.9 1.4 -2.6 2.8 -5 3.3 -5 1.1z"/>
  <path d="M138 363.5 l0 -3.6 3.5 2.8 c1.9 1.5 3.5 3.1 3.5 3.6 0 0.4 -1.6 0.7 -3.5 0.7 -3.3 0 -3.5 -0.2 -3.5 -3.5z"/>
  <path d="M230 361 c0 -1.6 0.3 -3 0.8 -3 0.9 0.1 6.2 4.7 6.2 5.5 0 0.3 -1.6 0.5 -3.5 0.5 -3.2 0 -3.5 -0.2 -3.5 -3z"/>
  <path d="M217 358.3 c0.1 -1.9 2.2 -5.3 3.4 -5.3 0.3 0 0.6 1.6 0.6 3.5 0 2.8 -0.4 3.5 -2 3.5 -1.3 0 -2 -0.7 -2 -1.7z"/>
  <path d="M150.6 357.1 c-0.3 -0.4 -1 -2 -1.5 -3.5 -1 -2.4 -0.8 -2.6 1.4 -2.6 2.2 0 2.5 0.4 2.5 3.5 0 3.3 -1.2 4.6 -2.4 2.6z"/>
  <path d="M68 352.4 c0 -2.8 0.4 -3.5 1.7 -3.2 1 0.2 2 1.6 2.4 3.6 0.6 2.9 0.4 3.2 -1.7 3.2 -2.1 0 -2.4 -0.5 -2.4 -3.6z"/>
  <path d="M145.3 344.5 c-1.1 -3.3 -1 -3.5 1.3 -3.5 2.1 0 2.4 0.5 2.4 3.5 0 2.2 -0.5 3.5 -1.3 3.5 -0.8 0 -1.8 -1.6 -2.4 -3.5z"/>
  <path d="M114 339.5 c0 -1.9 0.3 -3.5 0.8 -3.5 0.4 0 2 1.6 3.5 3.5 l2.8 3.5 -3.6 0 c-3.3 0 -3.5 -0.2 -3.5 -3.5z"/>
  <path d="M102.2 336.5 l-2.2 -3.5 3 0 c2.8 0 3 0.3 3 3.5 0 4.4 -0.9 4.4 -3.8 0z"/>
  <path d="M58.7 333.3 c-0.4 -0.3 -0.7 -1.9 -0.7 -3.5 0 -2.1 0.5 -2.8 2 -2.8 1.6 0 2 0.7 2 3.5 0 3.3 -1.6 4.6 -3.3 2.8z"/>
  <path d="M65 330.5 c0 -2.8 0.4 -3.5 1.9 -3.5 1.4 0 2 0.9 2.3 3.5 0.4 3.1 0.1 3.5 -1.9 3.5 -2 0 -2.3 -0.5 -2.3 -3.5z"/>
  <path d="M105 329.5 c0 -0.8 -0.4 -1.5 -1 -1.5 -0.5 0 -1 -1.6 -1 -3.5 0 -4 1.1 -4.5 3.2 -1.2 0.8 1.2 2.3 3.4 3.3 5 l1.7 2.7 -3.1 0 c-2.1 0 -3.1 -0.5 -3.1 -1.5z"/>
  <path d="M144 315.4 c0 -2.8 0.4 -3.5 1.7 -3.2 1 0.2 2 1.6 2.4 3.6 0.6 2.9 0.4 3.2 -1.7 3.2 -2.1 0 -2.4 -0.5 -2.4 -3.6z"/>
  <path d="M135.6 307.4 c-1.2 -3.2 -0.6 -5.4 1.4 -5.4 1.6 0 2 0.7 2 3.5 0 3.7 -2.2 4.9 -3.4 1.9z"/>
  <path d="M135 299.2 c0 -1.9 1.8 -4.2 3.2 -4.2 0.4 0 0.8 1.4 0.8 3 0 2.3 -0.4 3 -2 3 -1.3 0 -2 -0.7 -2 -1.8z"/>
  <path d="M59 290.1 c0 -3 1.1 -5.1 2.6 -5.1 0.9 0 1.4 1.2 1.4 3.5 0 2.8 -0.4 3.5 -2 3.5 -1.3 0 -2 -0.7 -2 -1.9z"/>
  <path d="M68 276.5 c0 -2.8 0.4 -3.5 2 -3.5 2 0 2.6 2.2 1.4 5.4 -1.2 3 -3.4 1.8 -3.4 -1.9z"/>
  <path d="M72 259.5 c0 -3 0.3 -3.5 2.4 -3.5 2.3 0 2.4 0.2 1.5 3.2 -0.5 1.8 -0.9 3.4 -0.9 3.5 0 0.2 -0.7 0.3 -1.5 0.3 -1 0 -1.5 -1.1 -1.5 -3.5z"/>
  <path d="M74.1 232.8 c2.5 -6.3 2.8 -6.8 4 -6.8 0.5 0 0.9 1.6 0.9 3.5 0 1.9 -0.4 3.5 -1 3.5 -0.5 0 -1 1.1 -1 2.5 0 2 -0.5 2.5 -2.5 2.5 l-2.5 0 2.1 -5.2z"/>
  <path d="M83 229.5 c0 -1.9 0.5 -3.5 1 -3.5 0.6 0 1 -0.9 1 -2 0 -1.5 0.7 -2 2.6 -2 1.4 0 2.4 0.4 2.2 0.8 -0.1 0.4 -1.2 2.9 -2.3 5.5 -2.4 5.6 -4.5 6.2 -4.5 1.2z"/>
  <path d="M89 217.6 c0 -3.4 0.2 -3.6 3.1 -3.6 l3.1 0 -2.1 3.2 c-2.8 4.5 -4.1 4.6 -4.1 0.4z"/>
  <path d="M84 212.4 c0 -1.2 3.4 -6.4 4.2 -6.4 0.4 0 0.8 1.6 0.8 3.5 0 3.1 -0.3 3.5 -2.5 3.5 -1.4 0 -2.5 -0.3 -2.5 -0.6z"/>
  <path d="M96 205.6 c0 -3.4 0.2 -3.6 3.1 -3.6 l3.1 0 -1.9 3.2 c-2.6 4.6 -4.3 4.7 -4.3 0.4z"/>
  <path d="M90 202.2 c0 -1 6.2 -10.1 12.2 -17.9 4.4 -5.8 7.3 -6.7 9.8 -3.3 0.8 1.1 2 2 2.7 2 0.7 0 1.3 0.2 1.3 0.5 0 0.5 -6.3 8.8 -11.6 15.3 l-2.1 2.6 -2.9 -2.7 c-3.8 -3.5 -4.4 -3.4 -4.4 0.8 0 3.1 -0.3 3.5 -2.5 3.5 -1.4 0 -2.5 -0.4 -2.5 -0.8z"/>
  <path d="M448.7 173.5 c-1.5 -1.4 -2.4 -2.5 -1.9 -2.5 0.5 0 1.9 1.1 3.2 2.5 3 3.2 2.3 3.2 -1.3 0z"/>
 </g>
 <g fill="#154688">
  <path d="M270 751 l0 -12.2 6.8 0.7 c10.7 1.1 14.2 3.9 14.2 11.5 0 7.6 -3.5 10.4 -14.2 11.5 l-6.8 0.7 0 -12.2z m18.6 2.8 c0.7 -2.4 0.6 -4.3 -0.4 -7 -1.6 -4 -3.2 -4.8 -10.4 -4.8 l-4.8 0 0 8.9 0 9 4.8 0.3 c5.8 0.4 9.5 -1.8 10.8 -6.4z"/>
  <path d="M443.9 762 c-5 -1.4 -6.8 -3.1 -8 -7 -1 -3.3 -0.9 -4.7 0.5 -8.5 1 -2.5 2.6 -5 3.6 -5.5 3.3 -1.8 11.5 -1.2 14.1 1 2.9 2.3 1.5 2.5 -3.5 0.5 -7 -2.9 -13.2 1.4 -12.7 8.8 0.4 5.7 3.1 8.4 8.7 8.9 2.4 0.2 4.4 0 4.4 -0.4 0 -0.9 4 -2.1 4.7 -1.5 0.7 0.8 -3.7 3.4 -6.7 4 -1.4 0.3 -3.7 0.1 -5.1 -0.3z"/>
  <path d="M466 757.6 c0 -2.9 0.3 -8.2 0.7 -11.7 l0.7 -6.4 0.7 4.5 c0.4 2.5 0.8 7.1 0.8 10.3 l0.1 5.7 3.8 0.1 c2 0.1 5.1 0.4 6.7 0.8 l3 0.7 -4 0.7 c-2.2 0.4 -5.9 0.7 -8.2 0.7 l-4.3 0 0 -5.4z"/>
  <path d="M496.3 761.6 c-1.9 -0.9 -3.4 -2.4 -3.7 -3.8 -1.3 -6.5 -1.5 -9.2 -0.9 -13.6 l0.7 -4.7 0.7 4 c0.5 2.2 0.8 5.9 0.8 8.3 0.1 6.6 1.4 8.2 6.4 8.2 6 -0.1 7.2 -1.4 7.6 -8.8 0.5 -10.8 1.9 -12.8 2 -3 0.1 7.7 -0.2 9 -2.1 11.2 -2.8 3.2 -7.3 4 -11.5 2.2z"/>
  <path d="M521 751 l0 -12.2 6.8 0.6 c3.7 0.4 7.5 0.9 8.4 1.2 2.4 0.7 3.2 4 1.7 7.5 -0.9 2.3 -0.9 3.3 0 4.2 1.8 1.8 1.4 7.5 -0.7 8.6 -1 0.5 -5 1.3 -9 1.6 l-7.2 0.8 0 -12.3z m16 6 c0 -3.8 -1.8 -5 -7.7 -5 l-5.3 0 0 4.1 0 4 6.5 -0.2 c6.3 -0.2 6.5 -0.3 6.5 -2.9z m-2.2 -8.6 c0.8 -0.2 1.2 -1.5 1 -3.1 -0.3 -2.7 -0.6 -2.8 -6 -3.1 l-5.8 -0.3 0 3.9 0 4 4.8 -0.5 c2.6 -0.3 5.3 -0.6 6 -0.9z"/>
  <path d="M302.8 756 c-0.3 -3.6 -0.3 -8.7 0.1 -11.5 l0.7 -5 0.6 6.5 c0.3 3.6 0.3 8.8 -0.1 11.5 l-0.7 5 -0.6 -6.5z"/>
  <path d="M322.2 759.8 c-0.6 -1.3 -1.7 -3.9 -2.5 -5.8 -0.8 -1.9 -2.4 -5.6 -3.6 -8.2 -2.5 -5.6 -2.6 -6.5 -0.7 -4.8 0.8 0.6 2.7 4.4 4.2 8.3 1.5 4 3.3 7.8 4 8.6 1.1 1.2 1.5 1.1 2.2 -1 0.5 -1.3 1.8 -4.2 2.7 -6.4 1 -2.2 1.9 -4.5 2 -5.2 0.4 -1.5 3.5 -6 3.5 -5 0 3.6 -7.7 20.8 -9.6 21.4 -0.6 0.2 -1.5 -0.7 -2.2 -1.9z"/>
  <path d="M344.8 756 c-0.3 -3.6 -0.3 -8.7 0.1 -11.5 l0.7 -5 0.6 6.5 c0.3 3.6 0.3 8.8 -0.1 11.5 l-0.7 5 -0.6 -6.5z"/>
  <path d="M358.8 756.8 c-0.7 -6.5 0.1 -16.8 1.3 -16.8 0.9 0 12.9 14.9 12.9 16.1 0 0.5 0.5 0.9 1 0.9 0.6 0 1 -3 1.1 -6.7 0.1 -9.3 1.4 -12.6 2.1 -5.3 0.7 6.9 -0.2 17.1 -1.4 16.4 -1 -0.6 -9.5 -10.9 -11.8 -14.2 -2.3 -3.5 -3 -2.6 -3.1 4.1 -0.1 3.4 -0.4 7.3 -0.8 8.7 -0.6 2 -0.9 1.3 -1.3 -3.2z"/>
  <path d="M393.7 760.9 c-2.4 -1.4 -4.7 -6.2 -4.7 -9.9 0 -3.8 2.4 -8.6 4.9 -10 3.1 -1.6 11.7 -1.2 13.6 0.6 2 2.1 1.3 2.9 -1.3 1.5 -2.8 -1.5 -9.5 -1.4 -11 0.1 -0.7 0.7 -1.2 0.8 -1.2 0.3 0 -0.6 -0.7 0.3 -1.5 1.9 -0.8 1.5 -1.5 3.9 -1.5 5.3 0 3.1 2.5 7.9 4.5 8.7 3 1.1 9 0.6 11.2 -0.9 2 -1.4 4 -7.1 2.1 -5.9 -0.5 0.3 -2.1 0.3 -3.6 -0.1 -2.6 -0.7 -2.6 -0.7 -0.5 -1.5 3.2 -1.3 6.3 -0.1 6.3 2.4 0 2.1 -2.4 6.4 -4.4 7.8 -1.6 1.1 -10.8 0.9 -12.9 -0.3z"/>
  <path d="M70.5 716.6 c-11.5 -4.8 -18.1 -15.9 -17.2 -29.1 0.7 -11.2 5.8 -18.9 15.9 -24.1 3.7 -1.9 6.3 -2.4 12.1 -2.4 9 0 15.4 2.1 20.1 6.5 4.1 3.9 4.4 5 1.5 6.5 -1.7 1 -2.9 0.6 -7.3 -2.5 -8.4 -5.8 -19.8 -6.3 -25.5 -1.1 -1.2 1.1 -2.1 1.5 -2.1 1 0 -0.5 -1 0.6 -2.1 2.4 -1.2 1.7 -2.6 3.2 -3.2 3.2 -0.6 0 -0.8 0.3 -0.5 0.6 0.4 0.3 0 2 -0.7 3.8 -1.8 4.3 -2.1 10.1 -0.7 15.1 1.2 4.2 7.8 12.8 10.2 13.3 0.8 0.2 1.7 0.7 2 1.1 0.3 0.4 3.4 0.9 7 1 3.6 0.2 6.7 0.3 7 0.4 1.3 0.2 7.8 -3.3 10.8 -5.8 3.3 -2.8 3.4 -2.8 5.3 -0.8 2 1.9 2 1.9 -0.2 4.6 -3.5 4.6 -11.4 8 -19.4 8.4 -5.8 0.3 -8.1 -0.1 -13 -2.1z"/>
  <path d="M158.6 714.8 c-1 -2.4 -2.5 -6 -3.3 -8 l-1.5 -3.8 -12.8 0 c-7.1 0 -13.5 -0.3 -14.4 -0.6 -1 -0.4 -1.8 0.1 -2.2 1.2 -0.3 1.1 -1.7 4.7 -3.1 8.2 -2.4 5.9 -2.7 6.2 -5.9 6.2 l-3.4 0 2.1 -5.2 c1.1 -2.9 2.5 -5.9 3.1 -6.5 0.6 -0.7 0.7 -1.3 0.3 -1.3 -0.4 0 0 -1.1 0.9 -2.5 0.9 -1.3 1.6 -2.9 1.6 -3.4 0 -0.5 1 -3.1 2.2 -5.8 1.1 -2.6 2.2 -5.2 2.3 -5.8 0.2 -0.5 1 -2.7 1.8 -4.8 0.9 -2 1.7 -4.1 1.7 -4.5 0.1 -0.4 0.8 -1.8 1.5 -3.2 0.7 -1.4 2.3 -4.7 3.5 -7.5 2.8 -6.1 3.2 -6.3 7.7 -5.6 3.5 0.6 3.5 0.6 10 16.6 3.6 8.8 7.4 17.9 8.4 20.3 1.1 2.4 2.7 6.2 3.5 8.5 0.9 2.3 2 5.1 2.4 6.2 2.1 5.3 2.1 5.5 -1.3 5.5 -2.8 0 -3.4 -0.5 -5.1 -4.2z m-8.9 -21 c-0.1 -1.3 -0.8 -3.2 -1.3 -4.3 -1.2 -2.2 -5.8 -13.7 -5.9 -14.5 0 -0.3 -0.6 -1.5 -1.3 -2.6 -0.6 -1.2 -0.8 -2.5 -0.4 -2.9 0.4 -0.4 -0.3 -0.2 -1.5 0.4 -1.3 0.6 -2.3 1.8 -2.3 2.6 0 0.9 -0.4 2.3 -0.9 3.3 -1.2 2.4 -2.7 6 -4.7 11.5 -0.9 2.6 -2.1 5 -2.5 5.3 -0.4 0.2 -0.6 1.1 -0.2 1.9 0.4 1.2 2.7 1.5 10.9 1.5 10.3 0 10.5 0 10.1 -2.2z"/>
  <path d="M176 690 l0 -29 4 0 4 0 0 25.5 0 25.5 16.5 0 16.5 0 0 3.5 0 3.5 -20.5 0 -20.5 0 0 -29z"/>
  <path d="M233 706 l0 -13 -3.7 -5.7 c-2 -3.2 -4.5 -6.7 -5.5 -7.7 -1 -1.1 -1.8 -2.5 -1.8 -3.2 0 -0.7 -0.4 -1.4 -0.9 -1.6 -0.4 -0.1 -2.5 -2.9 -4.6 -6.2 -2.9 -4.6 -3.4 -6 -2.4 -6.7 4.2 -2.6 5.3 -1.4 22.1 24.5 0.8 1.2 5.8 -3.4 5.8 -5.4 0 -0.5 0.5 -1 1 -1 0.6 0 1 -0.7 1 -1.5 0 -0.8 0.5 -1.5 1 -1.5 0.6 0 1 -0.7 1 -1.5 0 -0.8 0.5 -1.5 1 -1.5 0.6 0 1 -0.7 1 -1.5 0 -0.8 0.5 -1.5 1 -1.5 0.6 0 1 -0.7 1 -1.5 0 -0.8 0.5 -1.5 1 -1.5 0.6 0 1 -0.7 1 -1.5 0 -0.8 0.5 -1.5 1 -1.5 0.6 0 1 -0.7 1 -1.5 0 -1.1 1.1 -1.5 4.1 -1.5 2.9 0 3.8 0.3 3.3 1.3 -2.7 4.5 -10.9 16.3 -11.6 16.5 -0.4 0.2 -0.8 1 -0.8 1.8 0 0.8 -0.4 1.4 -1 1.4 -0.5 0 -1 0.6 -1 1.3 0 0.7 -0.8 2.2 -1.7 3.3 -3.9 4.4 -4.3 6.3 -4.3 18.9 l0 12.5 -4 0 -4 0 0 -13z"/>
  <path d="M271 690.1 l0 -28.9 15.8 0.5 c13.4 0.5 16.2 0.8 19.1 2.6 5 3 7.1 7.2 7.1 14 0 11.4 -5.3 15.7 -20.5 16.8 -5.5 0.4 -10.8 0.8 -11.7 0.8 -1.6 0.1 -1.8 1.3 -1.8 11.6 l0 11.5 -4 0 -4 0 0 -28.9z m29.8 -2.8 c0.8 -0.7 1.7 -1.1 2 -0.9 1.4 0.8 2.8 -2.1 3.1 -6.6 0.6 -10 -2.1 -11.8 -16.9 -11.8 l-10 0 0 10.6 0 10.6 10.3 -0.3 c6.8 -0.2 10.6 -0.7 11.5 -1.6z"/>
  <path d="M336.5 717.9 c-4.6 -1.1 -12.2 -4.6 -13 -6 -1 -1.5 3 -5 4.8 -4.3 1 0.3 1.7 1 1.7 1.6 0 0.5 0.5 0.6 1 0.3 0.6 -0.3 1 -0.1 1 0.5 0 0.6 0.4 0.9 0.9 0.5 0.5 -0.3 1.2 -0.1 1.5 0.4 0.3 0.5 5.1 0.8 10.6 0.8 9.2 -0.2 10.1 -0.4 12.5 -2.7 6.3 -6.4 3.3 -12.9 -6.9 -14.9 -3.1 -0.6 -8 -1.6 -10.9 -2.1 -7.4 -1.5 -11.5 -4.2 -13.8 -9.5 -3.1 -7 -0.1 -14.5 7.5 -19 5.7 -3.4 17.8 -3.5 26.1 -0.4 6.1 2.3 7.6 4.2 5.3 6.5 -1.2 1.2 -2 1.3 -4.4 0.3 -6.5 -2.7 -15.8 -3.6 -20.6 -2 -4.5 1.5 -8.2 5.5 -8.3 8.9 0 4.6 5 7.7 15.6 9.6 15.5 2.8 20.3 6.6 20.1 15.6 -0.1 6.6 -2.2 10.3 -7.8 13.5 -5.2 3.1 -15.8 4.2 -22.9 2.4z"/>
  <path d="M397.9 717.8 c-6.3 -1.6 -13.1 -7.7 -16.7 -14.8 -3.1 -6 -3.3 -7.1 -3 -14 0.7 -12.6 5.6 -20.3 16 -25.6 7 -3.5 19.3 -3.4 26.6 0.2 6.3 3.1 12.8 10.3 14.3 15.7 1.6 5.9 0.7 19.4 -1.5 23.9 -2.6 5.3 -8.2 10.7 -14 13.4 -5.5 2.6 -14.7 3.1 -21.7 1.2z m25 -11.2 c1.9 -1.4 3.1 -2.6 2.5 -2.6 -0.5 0 -0.2 -0.6 0.6 -1.3 2 -1.6 2.3 -3 2.8 -11.2 0.5 -9.4 -0.8 -13.3 -6.6 -18.6 -5.6 -5.2 -5.5 -5.1 -15.2 -5.5 -7.4 -0.3 -7.6 -0.2 -12.6 3.6 -6 4.5 -9.3 11.1 -9.4 18.6 -0.1 5.7 0.1 7 1.9 10.4 1.5 2.7 8.1 10.4 8.1 9.4 0 -0.4 0.7 -0.1 1.6 0.7 0.9 0.7 4.8 1.5 8.7 1.8 7.8 0.6 10.9 -0.3 17.6 -5.3z"/>
  <path d="M505.4 715.7 c2.4 -1.8 1.7 -5 -1.4 -5.8 -1.4 -0.4 -1.8 -0.8 -1 -0.8 0.8 -0.1 2.5 -0.4 3.8 -0.7 1.8 -0.5 2.2 -0.2 2.2 1.7 0 4.6 -1.2 6.9 -3.3 6.9 -2 0 -2 -0.1 -0.3 -1.3z"/>
  <path d="M515.3 716.4 c2.2 -0.7 2.2 -1.2 -0.5 -3.3 -2.1 -1.8 -1.8 -4.1 0.5 -4.1 0.7 0 0.6 0.4 -0.3 1 -0.8 0.5 -1.2 1 -1 1.2 0.3 0.2 1.4 0.8 2.5 1.4 2.8 1.6 2.5 3.9 -0.5 4.1 -1.4 0.1 -1.8 0 -0.7 -0.3z"/>
  <path d="M522.1 713.8 c0.1 -1.8 0.4 -4.4 0.8 -5.8 l0.7 -2.5 0.7 2.5 c0.3 1.3 0.3 2.8 -0.2 3.3 -0.5 0.5 -0.6 1.8 -0.4 2.8 0.4 1.5 1.3 1.9 3.2 1.7 2.1 -0.2 2.6 -0.8 2.6 -3 -0.1 -1.6 0.3 -2.4 0.8 -1.9 0.5 0.5 0.7 1.9 0.5 3.2 -0.2 2 -1 2.4 -4.5 2.7 -4.3 0.3 -4.3 0.3 -4.2 -3z"/>
  <path d="M500.7 715.3 c-1.1 -1 -0.8 -4.3 0.3 -4.3 0.6 0 1 1.1 1 2.5 0 2.6 -0.2 2.9 -1.3 1.8z"/>
  <path d="M247 543.3 c-15.9 -1.7 -55.7 -12.1 -59.4 -15.4 -0.6 -0.5 -1.6 -0.9 -2.3 -0.9 -1.6 0 -13.4 -5.5 -19 -8.9 -3.3 -2 -4.3 -3.2 -4.3 -5.2 0 -1.5 0.7 -3.2 1.6 -4 2.1 -1.7 5.8 -0.6 19.9 5.9 9.4 4.3 12.5 5.7 15.5 6.7 0.3 0.1 1.2 0.4 2 0.7 1.8 0.7 15.7 4.7 18.5 5.4 5.2 1.3 22.2 4.3 28.5 5.1 2.5 0.3 13.3 0.6 24 0.6 20.1 0.1 31.1 -0.9 47.9 -4.5 5.1 -1.1 10.1 -2.1 11 -2.3 0.9 -0.2 2.7 -0.8 4.1 -1.3 1.4 -0.5 2.8 -1 3.3 -1.1 0.4 0 0.8 -0.1 1 -0.2 0.1 0 1 -0.2 2 -0.4 3.2 -0.6 16.9 -6.6 33 -14.3 13.5 -6.5 15.7 -7.9 15.7 -9.9 0 -3.7 4.4 -3.1 6.9 1.1 2.6 4.1 3 12.6 0.6 10.6 -1.2 -1 -2.2 -0.9 -5.2 0.5 -2 1 -4.2 2.2 -4.7 2.6 -2.2 1.8 -19.4 10.2 -25.6 12.6 -16.8 6.4 -31.9 11.2 -40.5 12.7 -1.6 0.3 -4.1 0.8 -5.5 1.1 -11.1 2.5 -25.1 3.5 -45.5 3.3 -11 -0.1 -21.6 -0.3 -23.5 -0.5z"/>
  <path d="M221 521.9 c-1.9 -0.5 -4.2 -1.1 -5 -1.4 -0.8 -0.2 -4.2 -1.1 -7.4 -2 -22.5 -6.2 -52.4 -22.4 -73.6 -40 -13.2 -11 -21.5 -19.5 -34.1 -35.3 -1.9 -2.3 -11.5 -16.7 -12.2 -18.2 -0.4 -0.8 -1.8 -3.3 -3.2 -5.5 -4.8 -7.9 -12.1 -23.7 -15.8 -34.5 -9.1 -26.7 -11.8 -44.3 -11.2 -74 0.2 -11.3 0.6 -22.3 1 -24.5 5.1 -32.2 13.7 -56.3 29.8 -83.3 6.7 -11.2 8.2 -12.1 12.9 -7.8 1.4 1.4 2.9 2.2 3.4 1.8 0.4 -0.4 -0.6 1.1 -2.2 3.3 -1.6 2.2 -3.3 4.3 -3.7 4.6 -0.5 0.3 -0.7 0.8 -0.6 1 0.3 0.4 -5 10 -6.1 10.9 -2.4 2.2 -15.4 34 -17.5 43 -4.4 18.5 -4 16.4 -5.4 28.5 -2.5 21.2 -0.9 53.9 3.4 71.5 0.9 3.5 1.7 7.1 1.8 8 0.5 2.4 5.7 18.2 7.3 21.7 0.8 1.7 2.7 6.3 4.3 10.1 2.8 7 4.3 9.6 13.8 24.2 2.9 4.5 5.3 8.3 5.3 8.6 0 0.5 0.3 0.9 6 7.4 2.2 2.5 4 4.8 4 5.2 0 1.5 22.2 22.8 30 28.8 4.7 3.5 8.7 6.7 9 7 0.3 0.3 1.7 1.1 3.2 1.9 1.5 0.8 3.6 2.2 4.6 3.1 1 1 2.8 2.1 4 2.4 1.2 0.4 2.2 1.2 2.2 1.7 0 0.5 0.3 0.8 0.8 0.7 0.4 0 6.6 2.7 13.7 6.2 7.2 3.5 13.5 6.5 14 6.6 0.9 0.1 14 4.5 18.5 6.2 2.1 0.7 3.1 1 6 1.6 1.4 0.3 4.9 1.3 7.8 2.2 4.6 1.5 5.2 2 5.2 4.3 0 1.5 -0.5 3.2 -1.2 3.9 -1.4 1.4 -7.7 1.4 -12.8 0.1z"/>
  <path d="M268 510.3 c-49.4 -2.1 -99.5 -27 -130.6 -64.8 -8.6 -10.3 -7.7 -9.2 -12.9 -17 -4.8 -7.2 -5.6 -8.6 -10.9 -19.5 -6.2 -12.5 -7.5 -15.6 -10.7 -25.3 -6.5 -20 -6.4 -26.4 0.7 -25.5 2.8 0.3 4.6 3.7 5.7 10.7 0.3 1.6 0.8 3.4 1.1 3.9 0.3 0.4 0.7 1.9 1 3.3 0.2 1.3 1.6 5.6 3.1 9.4 1.5 3.9 2.8 7.5 2.9 8 0.3 1.3 8.9 18.9 9.6 19.5 1.3 1.2 7 10.8 7 11.7 0 0.6 0.7 1.3 1.5 1.7 0.8 0.3 1.5 1.2 1.5 2.1 0 0.8 0.4 1.5 0.8 1.5 0.4 0 2.6 2.3 4.7 5.2 5.3 6.9 22 23.5 27.3 27.2 2.4 1.6 4.6 3.6 5.1 4.4 0.4 0.7 1.1 1.3 1.4 1.3 0.4 0 3.8 1.9 7.5 4.4 3.8 2.4 8.1 5 9.6 5.6 1.4 0.7 2.6 1.6 2.6 2.1 0 0.5 0.4 0.7 0.9 0.3 0.5 -0.3 1.7 0.2 2.5 1.1 0.9 0.8 1.6 1.3 1.6 1 0 -0.4 2.2 0.5 5 1.9 2.7 1.4 5.3 2.6 5.7 2.6 0.5 0.1 1.7 0.6 2.8 1.2 1.1 0.6 2.5 1.2 3.2 1.3 1.8 0.3 8.7 2.6 9.8 3.3 0.6 0.3 1.9 0.7 2.9 0.8 1.1 0.2 4.5 1 7.5 1.8 7 1.7 17.3 3.2 32 4.5 6.2 0.6 12.2 1.5 13.2 2.1 2.2 1.1 2.5 5.2 0.7 6.6 -1.6 1.2 -8.3 1.9 -15.8 1.6z"/>
  <path d="M263 490.9 c-12.1 -1.9 -24.8 -5.2 -36.5 -9.6 -8.6 -3.2 -24.1 -10.5 -28.6 -13.6 -1.9 -1.2 -4.6 -2.8 -6.1 -3.6 -1.5 -0.8 -3.6 -2.1 -4.5 -3 -1 -0.9 -3.6 -2.8 -5.8 -4.3 -7 -4.8 -9.5 -7.7 -9.5 -10.9 0 -2.2 0.6 -3.2 2.5 -4.1 2.2 -1 3.2 -0.6 9.5 3.7 3.9 2.7 7 5.2 7 5.7 0 0.4 0.3 0.7 0.8 0.6 0.9 -0.3 13.2 7.3 13.2 8.2 0 0.4 0.6 0.7 1.3 0.7 0.7 0 4 1.6 7.4 3.6 3.4 1.9 6.4 3.3 6.7 3 0.3 -0.4 0.6 0 0.6 0.7 0 0.7 0.3 1 0.6 0.7 0.4 -0.4 1.9 0 3.3 0.7 2.6 1.4 5.7 2.7 7.6 3.1 0.6 0.2 3.9 1.3 7.5 2.5 6.5 2.1 8.4 2.7 12.9 3.6 1.3 0.3 5.3 1.1 8.8 1.8 7.9 1.7 40.5 2.1 52.8 0.7 10.7 -1.3 11.6 -1.5 18.3 -3.5 2.9 -0.8 5.2 -1.2 5.2 -0.9 0 0.3 0.6 0.1 1.3 -0.4 0.6 -0.5 4 -1.8 7.4 -2.8 3.4 -1 6 -2.2 5.7 -2.6 -0.3 -0.5 0.5 -0.9 1.8 -0.9 2.7 0.1 7.8 7.6 7.8 11.5 0 1.4 0.7 2.5 1.8 2.8 0.9 0.3 -0.3 0.5 -2.7 0.6 -2.8 0.1 -6.1 1.1 -8.8 2.6 l-4.3 2.6 0 -2.7 c0 -3 -0.6 -3 -11 0 -20.7 5.8 -50.4 7.2 -74 3.5z"/>
  <path d="M294 467 c-13.6 -2.6 -25.8 -5.9 -35.3 -9.6 -9.8 -3.9 -30.6 -13.9 -35.3 -17.1 -14 -9.5 -13.2 -8.9 -21.3 -15.8 -4.2 -3.6 -23.2 -22.4 -27 -26.8 -0.9 -1.1 -4.3 -3.2 -7.5 -4.9 -3.3 -1.7 -6.6 -3.6 -7.3 -4.4 -0.8 -0.8 -2.1 -1.4 -2.9 -1.4 -0.8 0 -1.4 -0.4 -1.4 -1 0 -0.5 -0.5 -1 -1.1 -1 -2.1 0 -21.3 -14.6 -30.2 -23 -15.1 -14.2 -31.7 -36.6 -31.7 -42.9 0 -2.4 3.5 -5.1 5.8 -4.4 1.8 0.4 7.2 7.4 7.2 9.2 0 0.6 0.5 1.1 1 1.1 0.6 0 1 0.6 1 1.4 0 0.8 0.3 1.6 0.8 1.8 0.9 0.4 8.2 9.4 8.2 10.1 0 0.9 24.9 25.7 25.7 25.7 0.5 0 2.2 1.4 4 3 1.8 1.7 3.5 3 3.8 3 0.4 0 1.8 0.9 3.2 2 1.4 1.1 3 2 3.5 2 1 0 0.7 -3.2 -0.3 -4 -1.2 -0.9 -10 -21.4 -13.3 -31 -6.3 -18.1 -9.9 -37.7 -7.7 -41.9 1.5 -2.7 6.6 -2.9 7.9 -0.3 0.8 1.5 3.2 12.7 3.7 17.2 0.3 2.1 2.2 8.8 5.7 20 2.9 9.2 14.5 35.2 16.1 35.8 0.4 0.2 0.5 0.8 0.1 1.3 -0.3 0.5 0 0.9 0.5 0.9 0.6 0 1.1 0.7 1.1 1.5 0 0.8 0.5 1.5 1 1.5 0.6 0 1 0.7 1 1.5 0 0.8 0.4 1.5 0.8 1.5 0.5 0 1.5 1.2 2.3 2.7 2.6 5.1 6.4 8.2 12.2 9.8 0.4 0.2 0.9 0.4 1.2 0.5 0.3 0.1 0.8 0.3 1.3 0.4 4.4 1.2 9.9 2.9 10.7 3.4 0.6 0.4 1.5 0.7 2.1 0.8 0.5 0.1 5.3 1.1 10.5 2.2 5.1 1.1 11.7 2.5 14.4 3.1 6.3 1.2 40.2 0.7 47.5 -0.7 3 -0.7 7.1 -1.4 9 -1.6 1.9 -0.3 5 -0.9 6.8 -1.5 1.7 -0.5 3.2 -0.8 3.2 -0.5 0 0.3 0.8 0 1.8 -0.5 1.1 -0.6 3 -1.2 4.3 -1.5 1.3 -0.3 5 -1.4 8.1 -2.5 8.8 -3.2 10.6 -2.8 12.3 2.9 0.4 1.4 1.3 2.8 1.9 3.3 1.8 1.2 41.5 0.5 47.6 -0.9 3 -0.7 5.7 -1.1 6.1 -0.9 0.3 0.3 1.2 -0.7 1.9 -2 1.3 -2.3 1.9 -2.5 9.5 -2.5 10.3 0 16.8 2.8 17.3 7.5 l0.4 3 -2.3 -2 c-1.2 -1.1 -1.9 -1.4 -1.5 -0.7 0.9 1.5 -1.8 2.6 -14.4 5.7 -10.8 2.7 -12.8 3 -29.5 4.6 -13.7 1.3 -31.7 0.6 -45 -1.7 -10.5 -1.8 -14.5 -1.8 -23.5 0.1 -11.9 2.5 -19.1 3 -42 2.9 -21.5 -0.1 -26.3 -0.6 -40 -3.9 -5.6 -1.4 -9 -1.6 -9 -0.6 0 0.5 3.3 3.8 7.3 7.2 3.9 3.4 7.7 6.7 8.2 7.4 0.6 0.6 1.3 1.3 1.8 1.3 1.7 0.4 8.7 5.5 8.7 6.5 0 0.6 0.3 0.7 0.6 0.4 0.7 -0.7 6.3 2.9 7.6 4.8 0.4 0.5 0.8 0.7 0.8 0.4 0 -0.4 4.6 1.8 10.2 4.7 5.7 3 10.7 5.4 11.3 5.4 0.6 0 1.7 0.6 2.3 1.3 0.9 0.8 5.8 1.2 17 1.2 17.6 0 22 -0.4 34.2 -3.5 4.7 -1.1 9.4 -2.3 10.5 -2.5 1.1 -0.2 2.1 -0.4 2.3 -0.6 0.1 -0.1 0.5 -0.2 1 -0.4 0.4 -0.1 2.1 -0.7 3.7 -1.4 1.7 -0.6 5.3 -2.1 8.2 -3.2 2.9 -1.2 5.5 -2 5.8 -2 0.4 0.1 3 -1.2 15.3 -7.9 1.5 -0.8 5.9 -3.7 9.7 -6.4 7.2 -5 13.1 -8.1 17.5 -9 3.6 -0.7 6 -1.3 10 -2.5 1.9 -0.6 3.7 -1.1 3.9 -1.1 1.7 0 -14.4 13.8 -22.9 19.6 -16.6 11.4 -38.8 21.7 -57 26.5 -9.1 2.3 -11 3 -11 3.9 0 0.4 1.7 1 3.9 1.4 4.6 0.7 6.4 2.5 5.9 6.3 l-0.3 2.8 -8.5 0.2 c-4.7 0 -10.5 -0.3 -13 -0.7z"/>
  <path d="M242.6 457.1 c-0.3 -0.5 -1.6 -0.7 -2.9 -0.3 -1.9 0.5 -2 0.4 -0.8 -1.1 1 -1.2 1.8 -1.4 3.1 -0.7 2.3 1.2 3.5 3 2.1 3 -0.5 0 -1.2 -0.4 -1.5 -0.9z"/>
  <path d="M421 442.4 c0 -0.8 0.6 -2.1 1.3 -2.9 1.2 -1.1 1.6 -1 2.8 0.6 0.7 1 1.9 1.9 2.6 1.9 0.7 0 1.3 0.5 1.3 1 0 0.6 -1.8 1 -4 1 -3 0 -4 -0.4 -4 -1.6z"/>
  <path d="M440 442.5 c0 -0.8 0.6 -1.6 1.3 -1.6 1.2 -0.2 3.2 -0.5 7.7 -1.2 7.7 -1.3 20.5 -5.3 27.3 -8.5 0.4 -0.2 0.7 0.8 0.7 2.2 0 2.1 -0.5 2.6 -2.5 2.6 -1.4 0 -2.5 0.4 -2.5 0.9 0 1 -12.1 4.6 -20.4 6.1 -8.4 1.4 -11.6 1.3 -11.6 -0.5z"/>
  <path d="M422.9 434.6 c-0.2 -3.8 -0.3 -4.4 -1.1 -5.2 -1.1 -1 -1 -2.6 0 -2 0.5 0.3 2.2 -0.8 3.7 -2.4 1.6 -1.7 3.2 -3 3.6 -3 0.4 0 5.5 -3.1 11.3 -7 5.8 -3.8 11 -7 11.6 -7 0.5 0 1 -0.4 1 -0.9 0 -0.5 1 -1.3 2.3 -1.7 1.2 -0.4 4 -2.2 6.1 -4 2.2 -1.9 4.5 -3.4 5.2 -3.4 0.7 0 1.9 -0.6 2.6 -1.3 0.7 -0.7 3.8 -3 6.8 -5 3 -2 6 -4.1 6.7 -4.7 0.7 -0.5 1.4 -1 1.6 -1 0.5 0 17.5 -11.4 20 -13.3 2.3 -1.9 2.2 -2.5 -1 -3 -1.6 -0.3 -0.5 -0.5 2.2 -0.5 2.8 0 8.2 -0.7 12 -1.7 3.9 -0.9 7.5 -1.8 8.2 -1.9 0.7 -0.1 1.6 -0.5 1.9 -0.9 0.4 -0.4 1.5 -0.7 2.5 -0.7 1.8 0 3.3 3.6 1.8 4.6 -0.5 0.3 -0.9 -0.4 -0.9 -1.5 0 -2.8 -1.1 -2.6 -4.1 0.5 -1.3 1.4 -8 6.1 -14.9 10.5 -6.9 4.4 -14.6 9.5 -17.2 11.2 -4.5 3.1 -24.8 16.5 -45.1 29.9 -5.6 3.7 -13.3 8.6 -17.1 10.9 -3.7 2.3 -7.4 4.9 -8.2 5.7 -1.2 1.1 -1.4 1 -1.5 -1.2z"/>
  <path d="M491.3 423.5 c3.6 -3.2 4.7 -3.1 4.7 0 0 2.2 -0.4 2.5 -3.7 2.5 l-3.8 -0.1 2.8 -2.4z"/>
  <path d="M499.5 417.4 c6.1 -5.2 7.1 -6.2 14.3 -13.8 l7.2 -7.8 0 3.6 c0 2.9 -0.4 3.6 -2 3.6 -1.4 0 -2 0.7 -2 2.3 0 3.2 -6.8 9.7 -10.3 9.7 -2.2 0 -2.7 0.4 -2.7 2.5 0 2.2 -0.4 2.5 -3.7 2.5 l-3.8 0 3 -2.6z"/>
  <path d="M260 390.7 c-9.3 -4.6 -25.1 -14.7 -32 -20.3 -10.7 -8.8 -11.7 -10.2 -10 -14.5 2 -4.7 7.3 -3.4 15 3.9 0.8 0.7 5.3 4 10 7.2 4.7 3.3 9.3 6.6 10.3 7.4 0.9 0.9 2 1.5 2.3 1.5 1 -0.2 7.4 3.5 7.4 4.4 0 0.4 0.4 0.6 0.9 0.2 0.5 -0.3 1.6 0.1 2.4 0.9 0.8 0.8 1.7 1.2 2.1 0.9 0.3 -0.4 0.6 0 0.6 0.7 0 0.7 0.3 1 0.6 0.7 0.4 -0.4 2.3 0.2 4.3 1.2 5.1 2.6 7.8 3.7 13.9 5.6 2.9 1 5.1 1.9 4.8 2.2 -1 1 -13.1 3.2 -17.6 3.3 -3.5 0 -6.9 -1.2 -15 -5.3z"/>
  <path d="M523 392.4 c0 -1.3 5.4 -10.4 6.2 -10.4 1.2 0 1 5.5 -0.4 8.5 -0.7 1.6 -1.9 2.5 -3.5 2.5 -1.2 0 -2.3 -0.3 -2.3 -0.6z"/>
  <path d="M358.5 283.2 c3.5 -2.1 9.5 -8.7 9.5 -10.4 0 -0.6 0.3 -0.9 0.6 -0.5 1.8 1.8 -8.6 12.7 -12.1 12.7 -0.5 0 0.4 -0.8 2 -1.8z"/>
  <path d="M335.2 281.5 c-3.3 -2.8 -7.2 -10 -7.1 -13.1 0 -1 0.7 0.3 1.5 2.9 1 3.1 3 6.2 5.6 8.7 4.5 4.5 4.5 5.3 0 1.5z"/>
  <path d="M368.3 259 c-0.5 -2.2 -0.7 -3.7 -0.2 -3.5 0.9 0.6 2.3 6.4 1.7 7 -0.2 0.3 -0.9 -1.3 -1.5 -3.5z"/>
  <path d="M333.5 251.2 c3.1 -3.5 7.4 -6.2 9.7 -6.2 0.7 0.1 -0.3 0.8 -2.2 1.6 -1.9 0.8 -5.1 2.9 -7 4.7 l-3.5 3.2 3 -3.3z"/>
  <path d="M362.9 250.3 l-3.4 -3.8 3.8 3.4 c2 1.9 3.7 3.6 3.7 3.8 0 0.8 -0.8 0 -4.1 -3.4z"/>
  <path d="M326 247.7 c0 -0.2 1.5 -1.6 3.3 -3.3 l3.2 -2.9 -2.9 3.3 c-2.8 3 -3.6 3.7 -3.6 2.9z"/>
  <path d="M392 218.8 c-1.1 -1.8 -2 -3.7 -2 -4.2 0 -1.2 0.1 -1 2.8 3.7 2.6 4.5 1.9 5 -0.8 0.5z"/>
  <path d="M395.6 182.7 c-1.7 -1.2 -1.5 -1.6 2.5 -5.1 l4.4 -3.7 0.3 2.6 c0.2 1.8 -0.4 3.6 -1.9 5.1 -2.6 2.8 -2.9 2.8 -5.3 1.1z"/>
  <path d="M387.3 174.7 c-0.3 -3.5 1.2 -5.7 3.7 -5.7 1 0 2 -0.6 2.2 -1.3 0.2 -1 0.8 -1 2.4 -0.2 1.9 0.9 1.8 1.3 -3 5.6 l-5.1 4.6 -0.2 -3z"/>
  <path d="M376.3 118.5 c-3.1 -2.5 -7.3 -8.3 -7.3 -10.1 0 -0.5 1.2 1 2.6 3.4 1.4 2.3 4.2 5.3 6.2 6.7 2 1.4 3.2 2.5 2.7 2.5 -0.6 0 -2.4 -1.1 -4.2 -2.5z"/>
  <path d="M412.2 89.8 c-1 -3 -1 -3.1 0.3 -1.4 1.3 1.7 2.1 4.6 1.2 4.6 -0.1 0 -0.8 -1.5 -1.5 -3.2z"/>
  <path d="M369 90.3 c0 -0.6 0.9 -2.1 2.1 -3.4 l2 -2.4 -1.7 3 c-2.4 3.9 -2.4 4 -2.4 2.8z"/>
  <path d="M407.4 82.8 l-2.9 -3.3 3.3 2.9 c1.7 1.7 3.2 3.1 3.2 3.3 0 0.8 -0.8 0.1 -3.6 -2.9z"/>
 </g>
 <g fill="#005b97">
  <path d="M505.2 715.8 c2 -1.6 2.9 -5.6 1.6 -6.5 -0.6 -0.3 -0.8 -0.1 -0.5 0.5 0.5 0.6 -0.1 0.8 -1.5 0.4 -2.1 -0.5 -2.1 -0.6 -0.2 -1.3 1 -0.4 2.5 -0.8 3.2 -0.8 1.5 -0.1 1.7 5.5 0.2 6.4 -0.6 0.4 -0.8 1.1 -0.5 1.6 0.4 0.5 -0.4 0.9 -1.6 0.9 -2 0 -2.1 -0.2 -0.7 -1.2z"/>
  <path d="M516 716 c1.3 -0.9 1.3 -1.1 0 -1.9 -0.8 -0.6 -1.1 -1.3 -0.7 -1.7 1.1 -1.2 3 1.3 2.4 3 -0.4 0.9 -1.2 1.6 -1.9 1.6 -0.9 0 -0.9 -0.3 0.2 -1z"/>
  <path d="M64.8 705.3 c-1.8 -2.1 -3.1 -4.3 -2.5 -4.3 0.2 0 1.3 1.4 2.5 3 2.5 3.3 2.4 4.1 0 1.3z"/>
  <path d="M390 673.6 c0 -0.2 1.4 -1.4 3 -2.6 1.7 -1.2 3 -1.9 3 -1.6 0 0.2 -1.3 1.4 -3 2.6 -1.6 1.2 -3 1.9 -3 1.6z"/>
  <path d="M396.6 510.5 c-1.1 -0.8 -1.5 -1.5 -0.8 -1.5 0.6 0 0.9 -0.7 0.6 -1.5 -0.4 -0.9 0 -1.5 1 -1.5 1.1 0 1.6 0.9 1.6 3 0 3.5 0.1 3.4 -2.4 1.5z"/>
  <path d="M389.7 497.6 c-0.3 -0.7 -3.4 -3.2 -6.9 -5.5 -3.4 -2.2 -5.5 -4.1 -4.5 -4.1 0.9 0 1.7 -0.2 1.7 -0.4 0 -0.2 -3.7 -6.4 -8.3 -13.7 -4.6 -7.4 -8.6 -14.2 -9 -15.2 -0.4 -1 -1.2 -1.5 -1.8 -1.1 -3.4 2 1.4 -3.2 6.1 -6.7 l5.3 -4 3.2 5.8 c1.7 3.2 4.6 8.1 6.3 10.8 1.7 2.8 3.8 6.5 4.6 8.3 0.8 1.7 2 3.2 2.6 3.2 0.6 0 1 2.4 0.9 6.3 0 3.4 0.4 7.5 1 9 1.3 3.4 1.4 8.7 0.2 8.7 -0.5 0 -1.1 -0.6 -1.4 -1.4z"/>
  <path d="M119.5 464.8 l-4 -4.3 4.3 4 c2.3 2.1 4.2 4 4.2 4.2 0 0.8 -0.9 0 -4.5 -3.9z"/>
  <path d="M300.5 457 c0.3 -0.5 1.3 -1 2.1 -1 0.8 0 1.4 0.5 1.4 1 0 0.6 -0.9 1 -2.1 1 -1.1 0 -1.7 -0.4 -1.4 -1z"/>
  <path d="M195.7 454.5 c-2 -1.4 -3.7 -2.8 -3.7 -3.1 0 -0.2 1.8 0.8 4 2.2 3.5 2.3 4.7 3.4 3.7 3.4 -0.1 0 -1.9 -1.1 -4 -2.5z"/>
  <path d="M422 442.8 c0 -1.3 0.5 -3 1 -3.8 0.8 -1.3 1 -1.3 1 0.2 0 1 1 2 2.5 2.4 3.9 1 3.1 3.4 -1 3.4 -3 0 -3.5 -0.3 -3.5 -2.2z"/>
  <path d="M443 442.6 c0 -1.3 2.8 -2.6 5.8 -2.6 0.6 0 1.2 0.9 1.2 2 0 1.6 -0.7 2 -3.5 2 -2.3 0 -3.5 -0.5 -3.5 -1.4z"/>
  <path d="M460 438.7 c0 -0.7 2.3 -2 5 -2.9 l5 -1.6 0 2.3 c0 1.5 -0.7 2.5 -2.2 2.9 -3.9 1 -7.8 0.7 -7.8 -0.7z"/>
  <path d="M475 433 c0 -0.8 9 -6 10.5 -6 0.3 0 0.5 1.1 0.5 2.3 0 1.6 -0.9 2.8 -2.5 3.5 -3.2 1.5 -8.5 1.6 -8.5 0.2z"/>
  <path d="M417.4 419.1 c-1.8 -3.8 -2.9 -7.2 -2.5 -7.7 0.3 -0.5 2.2 -1.8 4.1 -2.8 1.9 -1.1 14.1 -9 27 -17.6 12.9 -8.5 26.4 -17.4 30 -19.6 l6.5 -4.1 8.5 1.2 c4.7 0.7 7.9 1.3 7.2 1.4 -1.2 0.1 -11.6 6.8 -55.8 36 -20.8 13.7 -22.1 14.8 -21.7 17.4 0.2 1.5 0.2 2.7 0.1 2.7 -0.2 -0.1 -1.7 -3.2 -3.4 -6.9z"/>
  <path d="M501.5 416 c0.3 -0.5 1.9 -1.9 3.5 -3 l3 -2.1 0 3 c0 2.9 -0.3 3.1 -3.6 3.1 -2 0 -3.3 -0.4 -2.9 -1z"/>
  <path d="M199 408.5 c-3.6 -3.8 -3.7 -4.8 -0.1 -3.8 1.6 0.4 1.9 0.8 1 1.4 -1 0.6 -0.8 1.4 1.1 3.3 1.3 1.5 2.1 2.6 1.9 2.6 -0.3 0 -2 -1.6 -3.9 -3.5z"/>
  <path d="M514 404 c3.1 -4.4 4 -4.5 4 -0.6 0 3.3 -0.2 3.6 -3.1 3.6 l-3 0 2.1 -3z"/>
  <path d="M398 397.1 c-1.9 -1 -5.2 -2.1 -7.2 -2.5 -5 -0.9 -5.2 -3.6 -0.3 -3.6 1.9 0 3.5 0.5 3.5 1 0 0.6 1.3 1 2.9 1 4.5 0 6.1 1 6.1 3.6 0 2.8 -0.4 2.9 -5 0.5z"/>
  <path d="M521.2 394.5 c2.9 -4.4 3.8 -4.4 3.8 0 0 3.2 -0.2 3.5 -3 3.5 l-3 0 2.2 -3.5z"/>
  <path d="M379 396 c0 -2.6 1.5 -4 4.1 -4 4.1 0 3.7 2.4 -0.6 3.7 -1.9 0.6 -3.5 0.7 -3.5 0.3z"/>
  <path d="M530.4 374.8 c0.7 -3.3 1.3 -4.4 2.1 -3.6 0.3 0.2 0.8 1.9 1.1 3.6 0.6 2.8 0.4 3.2 -1.6 3.2 -2 0 -2.2 -0.4 -1.6 -3.2z"/>
  <path d="M159.1 376.1 c-0.8 -0.5 -1.5 -1.9 -1.6 -3 -0.2 -2.8 0.2 -2.6 2 0.9 1.7 3.3 1.7 3.4 -0.4 2.1z"/>
  <path d="M162.5 358.9 c-0.9 -1.7 -1.5 -3.3 -1.3 -3.5 0.3 -0.2 1.2 1.2 2.1 3.1 2.1 4.3 1.3 4.7 -0.8 0.4z"/>
  <path d="M128.4 351.8 l-2.9 -3.3 3.3 2.9 c3 2.8 3.7 3.6 2.9 3.6 -0.2 0 -1.6 -1.5 -3.3 -3.2z"/>
  <path d="M362.9 279.7 c1.9 -2.1 3.7 -3.7 3.9 -3.7 0.9 0 -2.9 4.3 -5 5.7 -1.5 1.1 -1.1 0.4 1.1 -2z"/>
  <path d="M346.8 244.3 c1.2 -0.2 3.2 -0.2 4.5 0 1.2 0.2 0.2 0.4 -2.3 0.4 -2.5 0 -3.5 -0.2 -2.2 -0.4z"/>
  <path d="M111 189.3 c1.3 -2 1.7 -3.3 0.9 -3.3 -0.6 0 -1.9 -0.8 -2.8 -1.9 -0.9 -1 -2.4 -2 -3.4 -2.2 -1.4 -0.3 -0.4 -1.9 4.8 -7.6 3.7 -4 7.2 -7.3 7.9 -7.3 0.7 0 2.1 0.9 3.1 2 1 1.1 2.4 2 3.2 2 2.4 0 1.4 2.2 -3.5 7.4 -2.6 2.8 -6.5 7.1 -8.6 9.6 -2.3 2.8 -3 3.2 -1.6 1.3z"/>
 </g>
 <g fill="#0069ac">
  <path d="M270 751 l0 -12 3.8 0.2 c3.6 0.1 3.6 0.1 0.5 0.5 l-3.3 0.4 0 10.9 0 10.9 3.3 0.4 c3.1 0.4 3.1 0.4 -0.5 0.5 l-3.8 0.2 0 -12z"/>
  <path d="M466.1 760.8 c0.1 -1.7 0.3 -1.8 0.6 -0.6 0.3 1.3 1.8 1.8 5.6 2.1 l5.2 0.3 -5.7 0.2 c-5.4 0.2 -5.8 0.1 -5.7 -2z"/>
  <path d="M521.1 760.8 c0.1 -1.7 0.3 -1.8 0.6 -0.6 0.3 1.1 1.7 1.8 4.1 2.1 l3.7 0.4 -4.2 0.1 c-3.9 0.2 -4.3 0 -4.2 -2z"/>
  <path d="M272 751 l0 -10 5.3 0.2 5.2 0.2 -4.7 0.3 -4.8 0.4 0 8.9 0 8.9 3.8 0.4 3.7 0.4 -4.2 0.1 -4.3 0.2 0 -10z"/>
  <path d="M470.8 760.3 c1.2 -0.2 3.2 -0.2 4.5 0 1.2 0.2 0.2 0.4 -2.3 0.4 -2.5 0 -3.5 -0.2 -2.2 -0.4z"/>
  <path d="M525.8 760.3 c1.2 -0.2 3.2 -0.2 4.5 0 1.2 0.2 0.2 0.4 -2.3 0.4 -2.5 0 -3.5 -0.2 -2.2 -0.4z"/>
  <path d="M346.2 751 c0 -1.9 0.2 -2.7 0.5 -1.7 0.2 0.9 0.2 2.5 0 3.5 -0.3 0.9 -0.5 0.1 -0.5 -1.8z"/>
  <path d="M493.3 750 c0 -2.5 0.2 -3.5 0.4 -2.2 0.2 1.2 0.2 3.2 0 4.5 -0.2 1.2 -0.4 0.2 -0.4 -2.3z"/>
  <path d="M533 749.1 c2 -0.6 2.5 -1.4 2.5 -3.8 0 -1.7 0.3 -2.9 0.7 -2.6 1.2 0.7 0.9 4.8 -0.4 6.1 -0.7 0.7 -2.1 1.2 -3.2 1.1 -1.8 -0.1 -1.7 -0.2 0.4 -0.8z"/>
  <path d="M526.3 741.3 c1.5 -0.2 3.9 -0.2 5.5 0 1.5 0.2 0.2 0.4 -2.8 0.4 -3 0 -4.3 -0.2 -2.7 -0.4z"/>
  <path d="M523.3 739.3 c0.9 -0.2 2.5 -0.2 3.5 0 0.9 0.3 0.1 0.5 -1.8 0.5 -1.9 0 -2.7 -0.2 -1.7 -0.5z"/>
  <path d="M214.2 718.3 c1 -0.2 1.8 -1.7 2.1 -3.6 0.4 -3.1 0.4 -3.1 0.5 0.6 0.2 3.3 -0.1 3.7 -2 3.6 -1.6 -0.1 -1.8 -0.3 -0.6 -0.6z"/>
  <path d="M515.3 716.4 c2 -0.6 2.3 -2 0.5 -2.7 -0.7 -0.2 -0.9 -0.8 -0.5 -1.3 0.9 -1 2.8 1.6 2.4 3.1 -0.2 0.6 -1.2 1.1 -2.3 1.2 -1.6 0.2 -1.6 0.1 -0.1 -0.3z"/>
  <path d="M506.7 712 c-0.3 -1.3 -0.1 -1.8 0.6 -1.3 0.7 0.4 0.6 -0.1 -0.2 -1 -1.2 -1.5 -1.1 -1.7 0.3 -1.7 1.1 0 1.6 0.9 1.6 3 0 3.4 -1.5 4 -2.3 1z"/>
  <path d="M344.8 666.3 c1.2 -0.2 3 -0.2 4 0 0.9 0.3 -0.1 0.5 -2.3 0.4 -2.2 0 -3 -0.2 -1.7 -0.4z"/>
  <path d="M227.4 568.9 c-13.6 -2.5 -15.4 -3.2 -15.4 -6.4 0 -2.2 0.4 -2.5 3.6 -2.5 2 0 8.3 0.8 14 1.7 l10.4 1.7 0 3.8 c0 2.4 -0.5 3.8 -1.2 3.7 -0.7 0 -5.9 -0.9 -11.4 -2z"/>
  <path d="M395.5 506 c-2 -3.8 -1.9 -4 1 -4 2.2 0 2.5 0.4 2.5 3.5 0 4.3 -1.4 4.5 -3.5 0.5z"/>
  <path d="M389.6 497.1 c-0.3 -0.4 -1 -2 -1.5 -3.5 -1 -2.4 -0.8 -2.6 1.4 -2.6 2.2 0 2.5 0.4 2.5 3.5 0 3.3 -1.2 4.6 -2.4 2.6z"/>
  <path d="M348.2 487 c0 -1.9 0.2 -2.7 0.5 -1.7 0.2 0.9 0.2 2.5 0 3.5 -0.3 0.9 -0.5 0.1 -0.5 -1.8z"/>
  <path d="M301.3 482.3 c0.9 -0.2 2.5 -0.2 3.5 0 0.9 0.3 0.1 0.5 -1.8 0.5 -1.9 0 -2.7 -0.2 -1.7 -0.5z"/>
  <path d="M386.7 479.9 c0.4 -1.4 0.2 -2 -0.4 -1.6 -0.6 0.4 -1.8 -0.9 -2.7 -3.1 -0.9 -2 -3.9 -7.3 -6.6 -11.7 -2.7 -4.4 -5.5 -9.2 -6.1 -10.7 -0.7 -1.8 -1.6 -2.5 -2.7 -2.1 -1.5 0.4 -1.5 0.3 -0.2 -0.6 2.8 -2.2 10.5 -5.9 14.2 -6.9 3.1 -0.9 3.7 -0.8 4 0.6 0.2 1 2.3 5.2 4.8 9.4 3.5 6 5 7.7 6.8 7.8 1.8 0 2.2 0.6 2.2 3.1 0 1.9 -0.8 3.7 -2.1 4.8 -1.2 1 -3.6 4.2 -5.3 7.2 -3.4 5.6 -7 8 -5.9 3.8z"/>
  <path d="M303 457.1 c0 -1 5 -2.5 5.8 -1.6 0.3 0.3 -0.2 0.5 -1.1 0.5 -0.9 0 -1.7 0.5 -1.7 1 0 0.6 -0.7 1 -1.5 1 -0.8 0 -1.5 -0.4 -1.5 -0.9z"/>
  <path d="M279.3 448.3 c0.9 -0.2 2.5 -0.2 3.5 0 0.9 0.3 0.1 0.5 -1.8 0.5 -1.9 0 -2.7 -0.2 -1.7 -0.5z"/>
  <path d="M421 442.9 c0 -1.1 0.6 -2.7 1.4 -3.4 1.2 -1.2 1.5 -1.1 1.9 0.5 0.3 1.1 1.2 2 2.1 2 0.9 0 1.6 0.7 1.6 1.5 0 1 -1.1 1.5 -3.5 1.5 -2.9 0 -3.5 -0.4 -3.5 -2.1z"/>
  <path d="M433 443.6 c0 -0.7 1 -1.6 2.3 -2 4.1 -1.1 5.7 -0.7 5.7 1.4 0 1.7 -0.7 2 -4 2 -2.7 0 -4 -0.4 -4 -1.4z"/>
  <path d="M449 441.6 c0 -0.8 2.4 -2 6.5 -3 8.1 -2 8.5 -2 8.5 0.2 0 1.4 -1.3 2.1 -5.1 3 -6.7 1.6 -9.9 1.5 -9.9 -0.2z"/>
  <path d="M466.2 436.8 c0.2 -0.6 3.3 -2.4 6.9 -3.9 6.3 -2.7 6.4 -2.7 6.7 -0.7 0.4 2.4 -1.3 3.8 -4.5 3.8 -1.3 0 -2.3 0.5 -2.3 1 0 0.6 -1.6 1 -3.6 1 -2.3 0 -3.4 -0.4 -3.2 -1.2z"/>
  <path d="M481 430.2 c0 -0.8 5.2 -4.2 6.4 -4.2 0.3 0 0.6 1.1 0.6 2.5 0 2.2 -0.4 2.5 -3.5 2.5 -1.9 0 -3.5 -0.4 -3.5 -0.8z"/>
  <path d="M417.4 418.9 c-1 -2.3 -3.1 -5.9 -4.6 -8 -1.6 -2.2 -2.8 -4.6 -2.8 -5.4 0 -0.9 5.2 -4.9 11.8 -9.2 22.4 -14.5 44.7 -29.5 45.7 -30.7 0.8 -0.9 3.5 -0.7 12 1 6.1 1.2 10 2.3 8.8 2.3 -1.3 0.1 -3.1 0.8 -4 1.7 -2.5 2.2 -59.1 39.3 -63 41.3 -4.1 2 -4.7 3.5 -2.7 7.3 0.8 1.6 1.4 3.2 1.1 3.4 -0.2 0.2 -1.2 -1.5 -2.3 -3.7z"/>
  <path d="M198.7 408.2 c-3.2 -3.3 -3.4 -4.2 -0.7 -3.5 1.1 0.3 1.7 1 1.4 1.5 -0.3 0.5 0.2 1.8 1.2 2.9 2.7 3 1.1 2.2 -1.9 -0.9z"/>
  <path d="M402 399 c-3.7 -2.9 -11.6 -5.1 -16.1 -4.4 -3.5 0.6 -3.9 0.4 -3.9 -1.5 0 -1.9 0.6 -2.1 5.4 -2.1 7.3 0 11.6 1 11.6 2.6 0 0.9 1.1 1.4 3 1.4 2.7 0 3 0.3 3 3 0 3.5 0.2 3.5 -3 1z"/>
  <path d="M351.3 399.3 c0.9 -0.2 2.5 -0.2 3.5 0 0.9 0.3 0.1 0.5 -1.8 0.5 -1.9 0 -2.7 -0.2 -1.7 -0.5z"/>
  <path d="M321.1 396.8 c0 -1.6 0.2 -1.8 0.6 -0.8 0.3 0.8 1.1 1.8 1.7 2.2 0.7 0.5 0.4 0.8 -0.6 0.8 -1.2 0 -1.8 -0.7 -1.7 -2.2z"/>
  <path d="M522 394.4 c0 -1.2 3.4 -6.4 4.2 -6.4 0.4 0 0.8 1.6 0.8 3.5 0 3.1 -0.3 3.5 -2.5 3.5 -1.4 0 -2.5 -0.3 -2.5 -0.6z"/>
  <path d="M529.3 378.5 c0.6 -1.9 1.6 -3.5 2.4 -3.5 0.8 0 1.3 1.3 1.3 3.5 0 3 -0.3 3.5 -2.4 3.5 -2.3 0 -2.4 -0.2 -1.3 -3.5z"/>
  <path d="M157.5 375.1 c-0.6 -1.1 0.9 -2.3 1.9 -1.4 0.9 0.9 0.7 2.3 -0.3 2.3 -0.6 0 -1.2 -0.4 -1.6 -0.9z"/>
  <path d="M531.1 366.8 c0 -2.8 0.2 -3 0.9 -1.3 1.2 2.8 1.2 4.5 0 4.5 -0.5 0 -1 -1.5 -0.9 -3.2z"/>
  <path d="M347.3 244.3 c0.9 -0.2 2.5 -0.2 3.5 0 0.9 0.3 0.1 0.5 -1.8 0.5 -1.9 0 -2.7 -0.2 -1.7 -0.5z"/>
  <path d="M418.8 234.3 c1.2 -0.2 3 -0.2 4 0 0.9 0.3 -0.1 0.5 -2.3 0.4 -2.2 0 -3 -0.2 -1.7 -0.4z"/>
  <path d="M118.6 180 c2.9 -3.6 5 -6.6 3.9 -5.7 -0.5 0.4 -2.1 -0.5 -3.6 -1.9 -2.5 -2.4 -3 -2.5 -4.6 -1.3 -4 3.2 5.3 -7.2 10.2 -11.5 l5.4 -4.7 3.1 3.2 c1.6 1.8 3 3.7 3 4.3 0 0.6 -4.4 5.4 -9.7 10.6 -5.4 5.2 -8.8 8.4 -7.7 7z"/>
  <path d="M400.5 176 c1.7 -1.9 1.9 -1.9 3.7 -0.4 2.4 2.3 2.4 2.4 -1.9 2.4 -3.6 0 -3.6 0 -1.8 -2z"/>
  <path d="M390 171 c0 -3.5 1.8 -4.6 5.4 -3.3 l2.5 0.8 -4 2.8 -3.9 2.8 0 -3.1z"/>
 </g>
 <g fill="#0076b6">
  <path d="M270 760.5 c0 -1.4 0.2 -2.5 0.4 -2.5 0.2 0 0.6 1.1 0.8 2.5 0.3 1.4 0.1 2.5 -0.3 2.5 -0.5 0 -0.9 -1.1 -0.9 -2.5z"/>
  <path d="M272.1 757.8 c0.2 -3 0.2 -3 0.6 -0.6 0.3 2.2 1 2.8 3.6 3.1 3.1 0.4 3.1 0.4 -0.5 0.5 -3.7 0.2 -3.8 0.1 -3.7 -3z"/>
  <path d="M272.1 743.3 c-0.1 -2.1 0.3 -2.3 4.2 -2.1 l4.2 0.1 -3.7 0.4 c-2.4 0.3 -3.8 1 -4.1 2.1 -0.3 1.2 -0.5 1.1 -0.6 -0.5z"/>
  <path d="M521.1 741.3 c-0.1 -1.8 0.4 -2.3 2.2 -2.2 1.5 0.1 1.7 0.3 0.5 0.6 -0.9 0.2 -1.9 1.2 -2.1 2.1 -0.3 1.2 -0.5 1 -0.6 -0.5z"/>
  <path d="M278.1 697.3 c-0.1 -1.8 0.4 -2.3 2.2 -2.2 1.5 0.1 1.7 0.3 0.5 0.6 -0.9 0.2 -1.9 1.2 -2.1 2.1 -0.3 1.2 -0.5 1 -0.6 -0.5z"/>
  <path d="M278.1 669.3 c-0.1 -1.8 0.4 -2.3 2.2 -2.2 1.5 0.1 1.7 0.3 0.5 0.6 -0.9 0.2 -1.9 1.2 -2.1 2.1 -0.3 1.2 -0.5 1 -0.6 -0.5z"/>
  <path d="M249.1 571.9 c-5.7 -0.4 -10.9 -1 -11.5 -1.2 -0.7 -0.3 -1.1 -1.9 -1 -3.5 0.2 -3 0 -3.1 -6.3 -4.3 -3.6 -0.7 -6.1 -1.5 -5.5 -1.7 0.6 -0.2 4.8 0.4 9.4 1.3 4.5 0.9 15.4 1.9 24.1 2.2 l15.7 0.6 0 3.8 0 3.9 -7.2 -0.1 c-4 -0.1 -12 -0.5 -17.7 -1z"/>
  <path d="M396.5 510 c-0.3 -0.5 -0.4 -1 -0.1 -1 0.3 0 0.1 -1.1 -0.4 -2.5 -0.9 -2.2 -0.7 -2.5 1.5 -2.5 2.2 0 2.5 0.4 2.5 3.5 0 3.4 -2 4.9 -3.5 2.5z"/>
  <path d="M392.2 500.8 c-0.7 -0.7 -1.2 -0.8 -1.2 -0.2 -0.1 0.5 -1.2 -2.5 -2.6 -6.6 -2.6 -7.7 -2.7 -13.7 -0.4 -18 2.1 -3.9 2.8 -1.9 2.6 7 -0.1 6.1 0.3 9.3 1.1 9.8 1.1 0.7 3.1 9.2 2.1 9.2 -0.2 0 -0.9 -0.5 -1.6 -1.2z"/>
  <path d="M392.6 468.3 c1.5 -2 2.2 -3.3 1.6 -2.9 -0.7 0.4 -1.2 0.3 -1.2 -0.2 0 -0.5 -2.3 -4.7 -5.1 -9.3 -2.8 -4.6 -5.1 -9.2 -5.2 -10.1 -0.1 -1.3 -0.8 -1.6 -2.7 -1.3 -1.4 0.3 -0.6 -0.2 1.7 -0.9 5.2 -1.8 16.4 -3 19.2 -2.1 1.2 0.3 2.1 1.5 2.1 2.6 0 1.1 0.7 2.2 1.5 2.5 0.8 0.4 1.5 1.2 1.5 2 0 2.8 2.4 6.4 4.2 6.4 1.6 0 1.9 0.6 1.6 3.5 -0.3 3.3 -0.8 3.8 -6.3 6.3 -3.3 1.5 -6.8 3.7 -7.8 4.9 -1.2 1.5 -2.9 2.3 -4.9 2.3 l-3 0 2.8 -3.7z"/>
  <path d="M301 457 c0 -0.5 0.9 -1 2 -1 1.1 0 2 0.5 2 1 0 0.6 -0.9 1 -2 1 -1.1 0 -2 -0.4 -2 -1z"/>
  <path d="M435 443.6 c0 -0.7 1 -1.6 2.3 -2 4.1 -1.1 5.7 -0.7 5.7 1.4 0 1.7 -0.7 2 -4 2 -2.7 0 -4 -0.4 -4 -1.4z"/>
  <path d="M444 442.6 c0 -1.3 2.8 -2.6 5.8 -2.6 0.6 0 1.2 0.9 1.2 2 0 1.6 -0.7 2 -3.5 2 -2.3 0 -3.5 -0.5 -3.5 -1.4z"/>
  <path d="M483 429.2 c0 -0.8 5.2 -4.2 6.4 -4.2 0.3 0 0.6 1.1 0.6 2.5 0 2.2 -0.4 2.5 -3.5 2.5 -1.9 0 -3.5 -0.4 -3.5 -0.8z"/>
  <path d="M491 424.3 c0.1 -0.5 2.4 -2.5 5.3 -4.5 2.9 -2.1 6.4 -4.7 8 -5.9 l2.7 -2.1 0 3.1 c0 2.6 -0.4 3.1 -2.5 3.1 -1.8 0 -2.5 0.5 -2.5 2 0 1.3 -0.7 2 -2 2 -1.1 0 -2 0.7 -2 1.5 0 1 -1.1 1.5 -3.5 1.5 -1.9 0 -3.5 -0.3 -3.5 -0.7z"/>
  <path d="M407.7 404.4 c-2.7 -3 -6.6 -6.3 -8.8 -7.4 -2.1 -1.1 -3.9 -2.5 -3.9 -3 0 -1.4 6.8 -1.2 7.2 0.2 0.6 1.7 5 0.3 8.1 -2.6 1.5 -1.4 4.3 -3.3 6.2 -4.2 1.9 -0.9 3.5 -2 3.5 -2.5 0 -0.5 0.7 -0.9 1.5 -0.9 0.8 0 1.5 -0.4 1.5 -0.9 0 -0.5 1.4 -1.4 3 -2 1.7 -0.5 3 -1.5 3 -2 0 -0.6 0.7 -1.1 1.5 -1.1 0.8 0 1.5 -0.4 1.5 -1 0 -0.5 0.6 -1 1.3 -1 0.7 0 2.2 -0.8 3.3 -1.8 1 -0.9 3.1 -2.3 4.7 -2.9 1.5 -0.7 2.7 -1.7 2.7 -2.3 0 -0.5 0.6 -1 1.3 -1 0.8 0 3.3 -1.4 5.7 -3.1 l4.3 -3.1 12.1 2.3 c10 2 11.4 2.5 7.9 2.7 -2.4 0.2 -4.3 0.7 -4.3 1.1 0 0.8 -28.7 20.3 -48.8 33.1 -4.6 2.9 -8.7 6.1 -9 7.1 -0.6 1.5 -1.5 0.9 -5.5 -3.7z"/>
  <path d="M519 398 c3.1 -4.4 4 -4.5 4 -0.6 0 3.3 -0.2 3.6 -3.1 3.6 l-3 0 2.1 -3z"/>
  <path d="M378.6 396.3 c-0.8 -0.9 1.4 -3.3 3 -3.3 0.8 0 1.4 0.4 1.4 1 0 1.2 -3.5 3.1 -4.4 2.3z"/>
  <path d="M528.3 381.8 c1.9 -4.6 3.7 -4.8 3.7 -0.4 0 3.2 -0.3 3.6 -2.5 3.6 -2.4 0 -2.5 -0.1 -1.2 -3.2z"/>
  <path d="M531 369 c0 -1.1 0.5 -2 1 -2 0.6 0 1 0.9 1 2 0 1.1 -0.4 2 -1 2 -0.5 0 -1 -0.9 -1 -2z"/>
  <path d="M387.5 177.2 c0.4 -0.7 0.1 -2 -0.6 -2.8 -1.5 -1.9 -0.7 -2.6 2.5 -2.2 l2.6 0.3 -2.6 3 c-1.4 1.7 -2.2 2.4 -1.9 1.7z"/>
  <path d="M128 170.5 c0.8 -1.1 2.2 -2.7 3.3 -3.5 1 -0.9 1.5 -2.3 1.2 -3.1 -0.8 -2 -6 -5 -7.1 -4.1 -0.5 0.4 0.5 -0.8 2.1 -2.7 1.7 -1.8 7.3 -6.7 12.5 -10.7 l9.5 -7.4 0.3 3.6 c0.2 1.9 1 3.8 1.8 4.1 2.6 1 1.4 3 -4.8 7.9 -3.5 2.6 -9.4 7.8 -13.3 11.4 -3.8 3.6 -6.3 5.6 -5.5 4.5z"/>
 </g>
 <g fill="#0083c3">
  <path d="M398.8 760.3 c1.2 -0.2 3 -0.2 4 0 0.9 0.3 -0.1 0.5 -2.3 0.4 -2.2 0 -3 -0.2 -1.7 -0.4z"/>
  <path d="M269.3 571.8 c-1.8 -2.4 -2.6 -4.1 -1.7 -3.5 0.6 0.3 1.6 0.2 2.4 -0.4 1.1 -0.6 0.7 -0.9 -1.5 -0.9 -4.9 -0.2 -11.8 -1 -12.3 -1.5 -0.3 -0.3 7.6 -0.5 17.5 -0.5 17.9 0 18.1 0 18.7 2.3 1.5 5.7 1.5 5.7 -10.8 5.7 -7.9 0 -11.6 -0.4 -12.3 -1.2z"/>
  <path d="M394.2 503.5 l-2.2 -3.5 3 0 c2.8 0 3 0.3 3 3.5 0 4.4 -0.9 4.4 -3.8 0z"/>
  <path d="M388.6 494.2 c-0.4 -1.3 -0.5 -2.6 -0.2 -2.9 1 -1.1 1.8 0.4 1.4 2.9 l-0.4 2.3 -0.8 -2.3z"/>
  <path d="M386.7 486.8 c-0.8 -3.1 0.2 -6.8 1.9 -6.8 1 0 1.4 1.3 1.4 4.5 0 4.9 -2.3 6.4 -3.3 2.3z"/>
  <path d="M389 474.1 c0 -0.6 1.1 -2.3 2.5 -3.8 l2.4 -2.8 0.1 3.8 c0 3.3 -0.3 3.7 -2.5 3.7 -1.4 0 -2.5 -0.4 -2.5 -0.9z"/>
  <path d="M402 463.1 c0 -0.7 1.7 -1.9 3.8 -2.9 3.1 -1.3 3.4 -1.7 1.5 -2 -2 -0.3 -5.1 -5.6 -4.5 -7.5 0.1 -0.5 -0.2 -0.6 -0.7 -0.3 -0.9 0.6 -2.7 -3.1 -2.3 -4.6 0.1 -0.5 -0.2 -0.8 -0.8 -0.8 -0.5 0 -1 -0.6 -1 -1.4 0 -0.9 -1.3 -1.6 -3.2 -1.9 -1.8 -0.2 1.3 -0.5 7 -0.5 5.6 -0.1 10.2 0.2 10.2 0.6 0 0.5 1.6 3.4 3.5 6.6 2.4 3.9 3.5 7.1 3.5 9.6 0 3.6 -0.2 3.8 -3.7 4.3 -2.1 0.3 -5.9 0.9 -8.5 1.3 -3.4 0.5 -4.8 0.3 -4.8 -0.5z"/>
  <path d="M437 443.6 c0 -1.3 2.8 -2.6 5.8 -2.6 0.6 0 1.2 0.9 1.2 2 0 1.6 -0.7 2 -3.5 2 -2.3 0 -3.5 -0.5 -3.5 -1.4z"/>
  <path d="M454 440.6 c0 -1.3 2.8 -2.6 5.8 -2.6 0.6 0 1.2 0.9 1.2 2 0 1.6 -0.7 2 -3.5 2 -2.3 0 -3.5 -0.5 -3.5 -1.4z"/>
  <path d="M469.2 435.8 c0.3 -0.7 1.9 -1.8 3.6 -2.5 3.1 -1.3 3.2 -1.2 3.2 1.2 0 2.2 -0.4 2.5 -3.6 2.5 -2.3 0 -3.4 -0.4 -3.2 -1.2z"/>
  <path d="M488 426.2 c0 -0.8 5.2 -4.2 6.4 -4.2 0.3 0 0.6 1.1 0.6 2.5 0 2.2 -0.4 2.5 -3.5 2.5 -1.9 0 -3.5 -0.4 -3.5 -0.8z"/>
  <path d="M196.7 406.3 c-1.3 -1.3 -0.7 -2.1 1.3 -1.6 1.1 0.3 1.7 0.9 1.4 1.4 -0.6 1.1 -1.8 1.2 -2.7 0.2z"/>
  <path d="M514.8 403.2 c1.2 -1.6 2.8 -3.5 3.7 -4.2 1.5 -1.2 1.6 -1 1.3 2.6 -0.3 3.6 -0.5 3.9 -3.7 4.2 l-3.3 0.3 2 -2.9z"/>
  <path d="M400.4 397.6 c-1.1 -0.8 -4.2 -2 -6.7 -2.7 -3 -0.7 -4.7 -1.7 -4.7 -2.7 0 -1.2 0.9 -1.4 4.9 -0.9 l4.8 0.6 21.9 -14.6 c12.1 -8 22.5 -15.1 23.2 -15.8 1 -0.9 2.9 -0.9 8.7 0 7.4 1.1 10.9 2.5 6.6 2.5 -1.2 0 -2 0.4 -1.7 0.8 0.2 0.4 -1.6 2.1 -4.2 3.7 -2.6 1.7 -4.7 2.8 -4.7 2.6 0 -0.3 -1.3 0.7 -2.9 2.2 -1.6 1.5 -3.1 2.5 -3.4 2.3 -0.2 -0.3 -1.6 0.6 -3 1.9 -1.4 1.3 -2.9 2.2 -3.3 2 -0.4 -0.3 -1 0.2 -1.3 1.1 -0.3 0.8 -1 1.3 -1.5 1 -0.5 -0.3 -1.1 0.1 -1.5 0.9 -0.3 0.8 -1.2 1.5 -2.1 1.5 -0.8 0 -1.5 0.5 -1.5 1.1 0 0.5 -0.4 0.7 -1 0.4 -0.5 -0.3 -1 -0.1 -1 0.4 0 0.6 -0.5 1.1 -1 1.1 -0.6 0 -2 0.9 -3.2 2 -1.2 1.1 -2.8 2 -3.5 2 -0.7 0 -1.3 0.5 -1.3 1.1 0 0.5 -0.4 0.7 -1 0.4 -0.5 -0.3 -1 -0.2 -1 0.4 0 1.4 -6.5 5.2 -9.8 5.7 -1.5 0.2 -3.6 -0.2 -4.8 -1z"/>
  <path d="M379.2 394 c1.4 -2.3 5.8 -2.7 5.8 -0.6 0 1.3 -2.8 2.6 -5.8 2.6 -1 0 -1 -0.4 0 -2z"/>
  <path d="M530.4 375.8 c0.8 -3.9 1.5 -4.7 2.6 -2.8 1.8 2.8 1.2 6 -1.1 6 -1.9 0 -2.1 -0.4 -1.5 -3.2z"/>
  <path d="M498.8 369.3 c1.7 -0.2 4.7 -0.2 6.5 0 1.7 0.2 0.3 0.4 -3.3 0.4 -3.6 0 -5 -0.2 -3.2 -0.4z"/>
  <path d="M117 166.7 c0 -0.2 1.5 -1.6 3.3 -3.3 l3.2 -2.9 -2.9 3.3 c-2.8 3 -3.6 3.7 -3.6 2.9z"/>
  <path d="M145.7 154.4 c0.3 -0.8 1.4 -1.9 2.5 -2.5 1.9 -1.1 1.9 -1.1 -0.4 -2.7 -1.2 -0.9 -2.9 -2.2 -3.6 -2.9 -0.8 -0.7 -1.8 -1 -2.4 -0.7 -0.7 0.4 -0.8 0.2 -0.4 -0.4 0.4 -0.6 1.3 -0.9 2 -0.6 0.7 0.3 1.9 -0.3 2.7 -1.3 1.2 -1.6 1.2 -1.7 -0.1 -0.8 -0.9 0.6 -0.3 -0.2 1.4 -1.6 1.6 -1.4 5.5 -4.2 8.6 -6.2 l5.7 -3.5 0.7 5.6 c0.7 5.4 0.6 5.8 -2 7.7 -12.8 9.6 -15.2 11.2 -14.7 9.9z"/>
 </g>
 <g fill="#008dcd">
  <path d="M521.2 742 c0 -1.9 0.2 -2.7 0.5 -1.7 0.2 0.9 0.2 2.5 0 3.5 -0.3 0.9 -0.5 0.1 -0.5 -1.8z"/>
  <path d="M289.4 572.3 c0.3 -0.3 0.1 -1.2 -0.5 -1.9 -0.6 -0.8 -0.9 -1.9 -0.6 -2.6 0.3 -1 -0.8 -1.3 -4.2 -1.2 -2.5 0.1 -5.5 -0.2 -6.6 -0.6 -1 -0.4 4.8 -1 13 -1.3 8.3 -0.3 18.6 -1.3 22.9 -2.1 7.9 -1.6 9.5 -1.3 9.6 1.7 0 0.4 0.7 0.7 1.5 0.7 0.9 0 1.5 0.9 1.5 2.4 0 2.3 -0.4 2.4 -9.7 3.4 -13.1 1.5 -27.7 2.3 -26.9 1.5z"/>
  <path d="M393 501.7 c-4.8 -4.3 -8.5 -20.7 -4.6 -20.7 1.3 0 1.6 1 3.2 11.8 0.5 3.2 1.1 4.2 2.5 4.2 1.5 0 1.9 0.7 1.9 3.5 0 1.9 -0.1 3.5 -0.2 3.5 -0.2 0 -1.4 -1.1 -2.8 -2.3z"/>
  <path d="M388 476.6 c1.3 -3.4 3.3 -6.6 4.2 -6.6 0.9 0 1.1 5.2 0.2 7.4 -0.3 0.9 -1.7 1.6 -3 1.6 -2.1 0 -2.2 -0.3 -1.4 -2.4z"/>
  <path d="M396.3 465.5 c3.6 -3.2 4.7 -3.1 4.7 0 0 2.2 -0.4 2.5 -3.7 2.5 l-3.8 -0.1 2.8 -2.4z"/>
  <path d="M406 461.8 c0 -1.7 2.9 -2.8 7.3 -2.8 3.2 0 3.4 -1.2 0.8 -4.8 -2.8 -4.1 -6.2 -11.2 -5.4 -11.3 0.5 0 -0.1 -0.4 -1.2 -0.9 -1.4 -0.6 0.5 -0.9 5.7 -0.9 5.6 -0.1 8.1 -0.5 9.2 -1.7 1.5 -1.4 1.6 -1.4 1.6 0.5 0 1.4 0.6 2.1 1.9 2.1 1.1 0 2.6 1.2 3.4 2.8 0.8 1.5 2.4 4.5 3.6 6.7 1.2 2.1 2.1 5.4 2.1 7.2 l0 3.3 -9.2 0 c-5.1 0 -11.7 0.3 -14.5 0.6 -4.4 0.6 -5.3 0.4 -5.3 -0.8z"/>
  <path d="M302 457 c0 -0.5 0.9 -1 2 -1 1.1 0 2 0.5 2 1 0 0.6 -0.9 1 -2 1 -1.1 0 -2 -0.4 -2 -1z"/>
  <path d="M438 443.5 c0 -0.9 1.4 -1.6 3.8 -2 2 -0.4 5.9 -1.1 8.5 -1.6 6.4 -1.2 6.7 -1.2 6.7 1 0 1.6 -1.2 2 -7.5 3 -9.9 1.4 -11.5 1.4 -11.5 -0.4z"/>
  <path d="M458 439.7 c0 -0.7 2.9 -2.2 6.5 -3.4 l6.5 -2.1 0 2.2 c0 1.8 -0.9 2.5 -3.9 3.4 -5.1 1.6 -9.1 1.5 -9.1 -0.1z"/>
  <path d="M485 428.2 c0 -0.8 5.2 -4.2 6.4 -4.2 0.3 0 0.6 1.1 0.6 2.5 0 2.2 -0.4 2.5 -3.5 2.5 -1.9 0 -3.5 -0.4 -3.5 -0.8z"/>
  <path d="M497 419.9 c1.9 -1.7 4.7 -3.9 6.3 -5 l2.7 -2 0 3 c0 2.6 -0.4 3.1 -2.5 3.1 -1.8 0 -2.5 0.5 -2.5 2 0 1.7 -0.7 2 -3.7 2 l-3.8 -0.1 3.5 -3z"/>
  <path d="M197 406 c-2 -1.2 -1 -1.9 1.4 -1 1.1 0.3 1.5 0.9 1 1.3 -0.6 0.3 -1.6 0.2 -2.4 -0.3z"/>
  <path d="M379 395.7 c0 -2.1 2.2 -5.7 3.5 -5.7 0.8 0 1.5 -0.4 1.5 -0.8 0 -0.5 1.7 -1.7 3.8 -2.8 2 -1 3.9 -2.1 4.2 -2.4 1.6 -1.6 17.9 -12 18.9 -12 0.6 0 1.1 -0.4 1.1 -0.9 0 -0.5 2 -1.9 4.4 -3.1 2.5 -1.2 4.6 -2.4 4.8 -2.8 0.2 -0.4 1.7 -1.8 3.5 -3 2.6 -1.9 4.4 -2.2 11.5 -2.1 7.6 0 19.9 1.5 15.4 1.8 -1.1 0 -2.9 0.9 -4 2 -2.2 2 -42.6 29 -46.4 31 -1.7 0.9 -3.2 0.9 -6.4 0 -4.1 -1 -10.4 -0.8 -14.1 0.7 -0.9 0.3 -1.7 0.4 -1.7 0.1z"/>
  <path d="M531 371.1 c0 -1.7 0.5 -3.3 1 -3.6 0.6 -0.4 1 0.8 1 2.9 0 2 -0.4 3.6 -1 3.6 -0.5 0 -1 -1.3 -1 -2.9z"/>
  <path d="M363 279.5 c1.9 -1.9 3.6 -3.5 3.9 -3.5 0.3 0 -1 1.6 -2.9 3.5 -1.9 1.9 -3.6 3.5 -3.9 3.5 -0.3 0 1 -1.6 2.9 -3.5z"/>
  <path d="M150 151.6 c0 -0.2 1.4 -1.4 3 -2.6 1.7 -1.2 3 -1.9 3 -1.6 0 0.2 -1.3 1.4 -3 2.6 -1.6 1.2 -3 1.9 -3 1.6z"/>
  <path d="M157 146.1 c0 -0.5 0.7 -1.1 1.5 -1.5 1.6 -0.6 2.1 -3.6 0.5 -3.6 -0.5 0 -1.8 -0.9 -2.9 -2.1 -1.1 -1.2 -2.5 -1.8 -3.3 -1.4 -0.7 0.4 -0.2 -0.3 1.2 -1.4 1.4 -1.1 3.2 -1.8 4 -1.5 0.8 0.3 1.1 0.2 0.7 -0.2 -0.4 -0.5 0.9 -1.9 3 -3.2 4.5 -2.8 17 -9.2 17.9 -9.2 0.3 0 0.4 1.6 0.2 3.5 -0.4 3.1 -0.1 3.5 1.9 3.5 4 0 2.5 2.5 -3.2 5.3 -3 1.5 -9.1 4.9 -13.5 7.6 -4.4 2.8 -8 4.6 -8 4.2z"/>
 </g>
 <g fill="#0098d6">
  <path d="M272.4 759.7 c-0.3 -0.8 -0.4 -5.2 -0.2 -9.8 l0.3 -8.4 3.8 -0.1 3.7 -0.1 -3.5 0.4 -3.5 0.4 0 8.9 0 8.9 4.3 0.4 4.2 0.4 -4.3 0.1 c-2.8 0.1 -4.4 -0.3 -4.8 -1.1z"/>
  <path d="M471.8 760.3 c1.2 -0.2 3 -0.2 4 0 0.9 0.3 -0.1 0.5 -2.3 0.4 -2.2 0 -3 -0.2 -1.7 -0.4z"/>
  <path d="M493.3 750.5 c0 -2.7 0.2 -3.8 0.4 -2.2 0.2 1.5 0.2 3.7 0 5 -0.2 1.2 -0.4 0 -0.4 -2.8z"/>
  <path d="M344.2 751 c0 -1.9 0.2 -2.7 0.5 -1.7 0.2 0.9 0.2 2.5 0 3.5 -0.3 0.9 -0.5 0.1 -0.5 -1.8z"/>
  <path d="M358.2 751 c0 -1.9 0.2 -2.7 0.5 -1.7 0.2 0.9 0.2 2.5 0 3.5 -0.3 0.9 -0.5 0.1 -0.5 -1.8z"/>
  <path d="M526.8 741.3 c1.2 -0.2 3 -0.2 4 0 0.9 0.3 -0.1 0.5 -2.3 0.4 -2.2 0 -3 -0.2 -1.7 -0.4z"/>
  <path d="M161.8 718.3 c1.2 -0.2 3 -0.2 4 0 0.9 0.3 -0.1 0.5 -2.3 0.4 -2.2 0 -3 -0.2 -1.7 -0.4z"/>
  <path d="M176.1 716.8 c0.1 -1.7 0.3 -1.8 0.6 -0.6 0.4 1.6 2.5 1.8 20.6 2.1 l20.2 0.2 -20.7 0.3 -20.8 0.2 0.1 -2.2z"/>
  <path d="M233.1 716.8 c0.1 -1.7 0.2 -1.9 0.6 -0.5 0.3 1.1 1.4 1.7 3.3 1.7 l2.9 0 0.4 -11.7 0.3 -11.8 0.2 12.3 0.2 12.2 -4 0 c-3.5 0 -4 -0.3 -3.9 -2.2z"/>
  <path d="M271.1 716.8 c0.1 -1.7 0.2 -1.9 0.6 -0.5 0.3 1.1 1.4 1.7 3.3 1.7 l2.9 0 0.3 -11.2 0.3 -11.3 3.8 -0.1 3.7 -0.1 -3.5 0.4 -3.5 0.4 0 11.5 0 11.4 -4 0 c-3.5 0 -4 -0.3 -3.9 -2.2z"/>
  <path d="M522.3 713.5 c0 -2.2 0.2 -3 0.4 -1.7 0.2 1.2 0.2 3 0 4 -0.3 0.9 -0.5 -0.1 -0.4 -2.3z"/>
  <path d="M80.8 712.3 c1.2 -0.2 3 -0.2 4 0 0.9 0.3 -0.1 0.5 -2.3 0.4 -2.2 0 -3 -0.2 -1.7 -0.4z"/>
  <path d="M405.8 712.3 c1.2 -0.2 3 -0.2 4 0 0.9 0.3 -0.1 0.5 -2.3 0.4 -2.2 0 -3 -0.2 -1.7 -0.4z"/>
  <path d="M183.4 686.5 c0 -14.3 0.2 -20 0.3 -12.7 0.2 7.3 0.2 19 0 26 -0.1 7 -0.3 1 -0.3 -13.3z"/>
  <path d="M133.3 702.3 c3.7 -0.2 9.7 -0.2 13.5 0 3.7 0.2 0.6 0.3 -6.8 0.3 -7.4 0 -10.5 -0.1 -6.7 -0.3z"/>
  <path d="M278.4 678.5 l0.1 -11 8.5 -0.1 8.5 0 -8.2 0.3 -8.2 0.4 -0.4 10.7 -0.3 10.7 0 -11z"/>
  <path d="M316.5 570.1 c1.1 -0.5 2.3 -0.7 2.8 -0.4 0.8 0.5 0.9 -1.4 0.1 -4.4 -0.5 -1.6 -1.4 -2.3 -3.3 -2.4 -1.4 0 2.2 -1.1 8.1 -2.4 5.8 -1.3 14.3 -3.4 18.7 -4.8 l8.1 -2.5 0 2.9 c0 2 -0.5 2.9 -1.6 2.9 -1.2 0 -1.4 0.7 -0.9 2.9 0.6 2.8 0.4 3.1 -3.2 4 -4.9 1.3 -26.9 5.1 -29.1 5 -1.3 0 -1.3 -0.2 0.3 -0.8z"/>
  <path d="M393.6 501.8 c-0.5 -1 -1.4 -1.8 -2.2 -1.8 -0.8 0 -1.4 -0.6 -1.4 -1.4 0 -0.8 -0.3 -2.1 -0.6 -3 -0.5 -1.2 0 -1.6 2 -1.6 2.8 0 4.1 2.8 3.4 7.1 -0.4 2.1 -0.6 2.2 -1.2 0.7z"/>
  <path d="M281.3 482.3 c0.9 -0.2 2.5 -0.2 3.5 0 0.9 0.3 0.1 0.5 -1.8 0.5 -1.9 0 -2.7 -0.2 -1.7 -0.5z"/>
  <path d="M297.3 482.3 c0.9 -0.2 2.5 -0.2 3.5 0 0.9 0.3 0.1 0.5 -1.8 0.5 -1.9 0 -2.7 -0.2 -1.7 -0.5z"/>
  <path d="M387 480.4 c0 -2.1 1.8 -5.4 3 -5.4 0.6 0 1 1.6 1 3.5 0 2.8 -0.4 3.5 -2 3.5 -1.1 0 -2 -0.7 -2 -1.6z"/>
  <path d="M390 473 c0 -0.5 1.4 -2.5 3.1 -4.4 3.5 -4.1 11.6 -8.3 17.7 -9.2 3.8 -0.6 4.2 -0.5 4.2 1.5 0 1.5 -0.6 2.1 -2.1 2.1 -2.4 0 -12.2 4 -12.7 5.2 -0.2 0.4 -1.5 0.8 -2.8 0.8 -1.9 0 -2.4 0.5 -2.4 2.5 0 2 -0.5 2.5 -2.5 2.5 -1.4 0 -2.5 -0.4 -2.5 -1z"/>
  <path d="M420 461.2 c0 -2 0.5 -2.2 5.9 -2.2 5.4 0 5.9 -0.2 5.4 -2 -0.3 -1.1 -0.9 -1.7 -1.4 -1.4 -0.5 0.3 -0.6 -0.1 -0.4 -0.9 0.3 -0.7 -0.5 -2.5 -1.9 -4 -1.3 -1.4 -2.1 -2.9 -1.7 -3.2 0.3 -0.4 -0.3 -1.3 -1.4 -2.1 -3.1 -2.3 -0.3 -3.4 8 -3.3 3.9 0 8.5 -0.3 10.3 -0.6 2.8 -0.7 3.2 -0.5 3.2 1.3 0 1.6 -0.7 2.1 -3 2.4 l-3 0.3 2.5 3.7 c2.9 4.3 3.5 11.2 1 12.2 -0.9 0.3 -6.5 0.9 -12.5 1.2 -10.8 0.7 -11 0.7 -11 -1.4z"/>
  <path d="M302.5 457 c-0.3 -0.5 0.3 -1 1.4 -1 1.2 0 2.1 0.5 2.1 1 0 0.6 -0.6 1 -1.4 1 -0.8 0 -1.8 -0.4 -2.1 -1z"/>
  <path d="M275.3 448.3 c0.9 -0.2 2.5 -0.2 3.5 0 0.9 0.3 0.1 0.5 -1.8 0.5 -1.9 0 -2.7 -0.2 -1.7 -0.5z"/>
  <path d="M421 441.1 c0 -0.5 0.7 -1.1 1.5 -1.5 0.9 -0.3 1.5 0 1.5 0.9 0 0.8 -0.7 1.5 -1.5 1.5 -0.8 0 -1.5 -0.4 -1.5 -0.9z"/>
  <path d="M467.2 436.8 c0.3 -0.7 1.9 -1.8 3.6 -2.5 3.1 -1.3 3.2 -1.2 3.2 1.2 0 2.2 -0.4 2.5 -3.6 2.5 -2.3 0 -3.4 -0.4 -3.2 -1.2z"/>
  <path d="M476 433 c0 -0.8 7 -5 8.5 -5 1.3 0 0.3 4.8 -1.1 5.4 -2.5 0.9 -7.4 0.7 -7.4 -0.4z"/>
  <path d="M519.7 397 c2.7 -3.8 5.1 -6.9 5.6 -7 0.4 0 0.7 1.6 0.7 3.5 0 1.9 -0.4 3.5 -1 3.5 -0.5 0 -1 0.7 -1 1.5 0 0.8 -0.7 1.5 -1.5 1.5 -0.8 0 -1.5 0.9 -1.5 2 0 1.6 -0.7 2 -3 2 l-3 0 4.7 -7z"/>
  <path d="M338.8 399.3 c2.3 -0.2 6.1 -0.2 8.5 0 2.3 0.2 0.4 0.4 -4.3 0.4 -4.7 0 -6.6 -0.2 -4.2 -0.4z"/>
  <path d="M381.9 388.3 c4.4 -8.9 4.2 -8.8 17.6 -17.8 13.3 -9 15.1 -9.7 27.5 -10.1 5.8 -0.2 9.6 -0.1 8.5 0.3 -1.1 0.3 -2.3 1 -2.7 1.7 -0.5 0.7 -0.8 0.6 -0.8 -0.4 0 -0.9 -0.8 -0.4 -1.8 1.3 -1 1.5 -2.1 2.4 -2.5 2.1 -0.4 -0.4 -0.9 0.1 -1.3 1 -0.3 0.9 -1 1.3 -1.5 1 -0.5 -0.3 -0.9 0 -0.9 0.5 0 0.6 -1.6 1.7 -3.5 2.5 -1.9 0.8 -3.5 2 -3.5 2.6 0 0.6 -0.4 0.8 -1 0.5 -0.5 -0.3 -1 -0.1 -1 0.4 0 0.6 -0.7 1.1 -1.5 1.1 -0.9 0 -2.7 1.1 -4 2.5 -1.4 1.3 -2.5 2.1 -2.5 1.7 0 -0.4 -0.6 0 -1.3 0.9 -0.7 0.9 -1.5 1.6 -2 1.7 -1.5 0.2 -6.7 3.7 -6.7 4.5 0 0.4 -0.4 0.6 -0.9 0.3 -0.5 -0.3 -1.2 0.1 -1.5 1 -0.3 0.8 -1 1.3 -1.6 0.9 -0.5 -0.3 -1.8 0.3 -3 1.5 -1.1 1.1 -2 1.7 -2 1.4 0 -0.3 -0.7 0.2 -1.6 1 -0.8 0.9 -1.9 1.4 -2.4 1.1 -0.4 -0.3 -1.3 0.2 -2 1 -0.7 0.8 -1.8 1.5 -2.5 1.5 -0.9 0 0 -2.7 2.4 -7.7z"/>
  <path d="M68.3 322.5 c0 -2.2 0.2 -3 0.4 -1.7 0.2 1.2 0.2 3 0 4 -0.3 0.9 -0.5 -0.1 -0.4 -2.3z"/>
  <path d="M68.3 306.5 c0 -2.2 0.2 -3 0.4 -1.7 0.2 1.2 0.2 3 0 4 -0.3 0.9 -0.5 -0.1 -0.4 -2.3z"/>
  <path d="M392 169 c0 -3.3 0.6 -3.6 3.3 -1.6 1.6 1.3 1.6 1.5 -0.8 3 -2.5 1.6 -2.5 1.6 -2.5 -1.4z"/>
  <path d="M178.8 132.2 c-1.6 -0.2 -2.8 -0.6 -2.8 -1 0 -0.4 -1 -1.8 -2.1 -3.2 -1.1 -1.4 -1.8 -1.9 -1.4 -1.3 0.4 0.9 0.1 1.1 -1.1 0.6 -1.4 -0.5 -1.2 -0.8 1 -2 1.5 -0.8 3.2 -1.1 3.8 -0.7 0.6 0.4 0.8 0.3 0.5 -0.3 -0.5 -0.8 13.7 -8.3 15.8 -8.3 0.3 0 0.5 0.9 0.5 2 0 1 0.7 2.3 1.6 2.8 0.9 0.5 1.4 1.8 1.2 3.1 -0.2 1.7 -2 3.1 -7.3 5.4 -4 1.8 -8.2 3.1 -9.7 2.9z"/>
  <path d="M414.3 99.5 c0 -2.2 0.2 -3 0.4 -1.7 0.2 1.2 0.2 3 0 4 -0.3 0.9 -0.5 -0.1 -0.4 -2.3z"/>
 </g>
 <g fill="#00a3e0">
  <path d="M233.1 716.8 c0 -1.6 0.2 -1.8 0.6 -0.8 0.3 0.8 1.1 1.8 1.7 2.2 0.7 0.5 0.4 0.8 -0.6 0.8 -1.2 0 -1.8 -0.7 -1.7 -2.2z"/>
  <path d="M343.4 565.6 c1.7 -1.3 1.8 -1.9 0.7 -4.2 -0.8 -1.8 -1.7 -2.4 -2.9 -2 -1.3 0.5 -1.3 0.3 0.3 -1 1.9 -1.5 1.8 -1.6 -1.5 -1 -3 0.4 -2.8 0.3 1 -0.9 2.5 -0.9 5.1 -1.3 5.8 -1 0.7 0.3 1.1 0.1 0.8 -0.3 -0.2 -0.4 3 -2 7.3 -3.6 4.3 -1.5 11.7 -4.6 16.5 -7 l8.6 -4.2 0 3.3 c0 3 -0.3 3.3 -3 3.3 -2 0 -3 0.5 -3 1.5 0 0.8 -0.4 1.5 -1 1.5 -1.8 0 -1.1 1.5 1.2 2.5 1.3 0.6 2.4 1.8 2.6 2.7 0.3 1.3 -1.7 2.3 -9.5 4.7 -10.7 3.2 -16.4 4.8 -20.5 5.5 -1.5 0.2 -3.3 0.8 -4 1.1 -0.7 0.4 -0.4 -0.1 0.6 -0.9z"/>
  <path d="M259.3 565.3 c0.9 -0.2 2.5 -0.2 3.5 0 0.9 0.3 0.1 0.5 -1.8 0.5 -1.9 0 -2.7 -0.2 -1.7 -0.5z"/>
  <path d="M396.5 509 c0.9 -1.4 -4.4 -10.2 -5.6 -9.4 -0.6 0.3 -0.9 0 -0.8 -0.7 0.1 -0.8 -0.3 -2.7 -1 -4.4 -0.7 -1.6 -1.5 -4.2 -1.8 -5.7 -0.5 -2.4 -0.2 -2.8 1.6 -2.8 1.7 0 2.1 0.6 2.1 3 0 1.7 0.5 3 1 3 0.6 0 1 1.4 1 3 0 2.3 0.4 3 2 3 1.5 0 2 0.7 2 2.5 0 1.6 0.6 2.5 1.5 2.5 1 0 1.5 1.1 1.5 3.5 0 2.9 -0.4 3.5 -2.1 3.5 -1.1 0 -1.7 -0.5 -1.4 -1z"/>
  <path d="M409 461.6 c0 -1.3 2.8 -2.6 5.8 -2.6 0.6 0 1.2 0.9 1.2 2 0 1.6 -0.7 2 -3.5 2 -2.3 0 -3.5 -0.5 -3.5 -1.4z"/>
  <path d="M417 461 c0 -2.1 2.3 -2.6 6.8 -1.4 4.1 1.1 2.6 3.4 -2.3 3.4 -3.8 0 -4.5 -0.3 -4.5 -2z"/>
  <path d="M428 461.8 c0 -1.7 2.9 -2.8 7.7 -2.8 3.8 0 6.3 -0.9 6.3 -2.2 0 -0.5 -1.7 -3.5 -3.9 -6.7 -2.1 -3.2 -3.6 -6.3 -3.2 -6.8 0.3 -0.5 4.5 -1.4 9.3 -2.1 4.8 -0.7 12.4 -2.3 16.8 -3.6 l8 -2.3 0 2.4 c0 2 -0.5 2.3 -3.5 2.3 -1.9 0 -3.5 0.4 -3.5 0.9 0 0.4 -2.7 1.4 -6 2.1 -3.3 0.7 -6 1.4 -6 1.7 0 0.2 1.2 2.1 2.6 4.2 1.7 2.7 2.4 4.9 2.2 7.3 -0.3 3.1 -0.7 3.4 -5.2 4.5 -2.7 0.7 -8.7 1.5 -13.3 1.9 -7.1 0.6 -8.3 0.4 -8.3 -0.8z"/>
  <path d="M421 441.4 c0 -0.3 0.7 -1.2 1.5 -2 1.3 -1.4 1.5 -1.3 1.5 0.5 0 1.2 -0.6 2.1 -1.5 2.1 -0.8 0 -1.5 -0.3 -1.5 -0.6z"/>
  <path d="M472 435 c0 -0.7 13.3 -8 14.7 -8 0.2 0 0.3 1.1 0.3 2.5 0 2.1 -0.5 2.5 -3 2.5 -1.9 0 -3 0.5 -3 1.4 0 0.8 -0.7 1.7 -1.6 2 -2.4 0.9 -7.4 0.7 -7.4 -0.4z"/>
  <path d="M490 425.3 c0 -0.5 1.6 -1.8 3.5 -3.1 l3.5 -2.2 0 3 c0 2.8 -0.3 3 -3.5 3 -1.9 0 -3.5 -0.3 -3.5 -0.7z"/>
  <path d="M498.5 419 c0.3 -0.5 1.9 -1.9 3.5 -3 l3 -2.1 0 3 c0 2.9 -0.3 3.1 -3.6 3.1 -2 0 -3.3 -0.4 -2.9 -1z"/>
  <path d="M524 391.6 c0 -0.2 1.3 -3.3 3 -6.8 1.6 -3.4 3 -6.9 3 -7.5 0 -0.7 0.7 -1.3 1.5 -1.3 1 0 1.5 1.1 1.5 3.5 0 1.9 -0.4 3.5 -1 3.5 -0.5 0 -1 0.9 -1 2 0 3.7 -2.2 7 -4.7 7 -1.2 0 -2.3 -0.2 -2.3 -0.4z"/>
  <path d="M384.9 382.2 c2.2 -4.2 10.2 -12 15 -14.5 5.4 -3 15.4 -6.7 18 -6.7 2.6 0 -1.2 3 -16.8 13.4 -14.3 9.6 -18.1 11.4 -16.2 7.8z"/>
  <path d="M399.7 176.9 c2.3 -2.3 5.3 -2 5.3 0.6 0 1.1 -1 1.5 -3.7 1.5 l-3.7 0 2.1 -2.1z"/>
  <path d="M121 177.7 c0 -0.2 1.5 -1.6 3.3 -3.3 l3.2 -2.9 -2.9 3.3 c-2.8 3 -3.6 3.7 -3.6 2.9z"/>
  <path d="M191.8 127.2 c1.9 -1.3 1.4 -2.3 -1.9 -4.8 -1.6 -1.1 -2.5 -2.5 -2.1 -2.9 0.4 -0.5 -0.1 -0.5 -1 -0.2 -4.2 1.6 -5.1 1.7 -2.8 0.4 2.9 -1.7 22.1 -9 22.4 -8.5 0.1 0.2 1.2 1.6 2.4 3.2 3.8 5 3.1 6 -7 9.7 -11.7 4.3 -11.6 4.2 -10 3.1z"/>
 </g>
 <g fill="#f39200">
  <path d="M252 770.1 c-5.8 -2.1 -14 -5.2 -18.3 -7 -4.3 -1.7 -8.6 -3.1 -9.7 -3.1 -1 0 -9.3 2.9 -18.3 6.5 -9.1 3.6 -17.1 6.5 -17.8 6.5 -2.7 0 2.6 -3.9 13.1 -9.5 11.7 -6.3 14.2 -8.2 11.9 -8.9 -0.8 -0.2 -10 -1.6 -20.4 -3 -22.2 -3.1 -27.5 -4.3 -27.5 -6.2 0 -1.7 -0.7 -1.8 13 0.6 14.3 2.6 34 3.8 34 2.2 0 -0.6 -3.3 -3.3 -7.2 -6 -6.6 -4.5 -12 -9.2 -10.5 -9.2 0.3 0 5.6 2.7 11.9 5.9 6.2 3.3 13.1 6.5 15.4 7.1 3.7 1.1 4.5 1 10 -1.8 3.2 -1.6 7.7 -3.5 9.9 -4.2 2.2 -0.7 6.1 -2.3 8.7 -3.6 5.5 -2.8 5.8 -2.8 5.8 -1 0 1.8 -7.6 8.1 -11 9.1 -6.9 2.1 -15 7.5 -15 10.1 0 0.6 8.1 4.7 18 9 9.8 4.4 17.9 8.5 18 9.2 0 1.9 -2.7 1.4 -14 -2.7z"/>
 </g>
 <g fill="#00ace8">
  <path d="M285.8 565.3 c1.2 -0.2 3 -0.2 4 0 0.9 0.3 -0.1 0.5 -2.3 0.4 -2.2 0 -3 -0.2 -1.7 -0.4z"/>
  <path d="M368.6 558.6 c0.2 -0.6 1.4 -1.2 2.4 -1.3 2.5 -0.2 1.8 1.3 -0.9 2 -1.2 0.3 -1.8 0 -1.5 -0.7z"/>
  <path d="M372.9 556.4 c-0.6 -0.8 -1.8 -1.4 -2.5 -1.4 -1.6 0 -2.9 -4.3 -2 -6.5 0.5 -1.3 0.1 -1.3 -3.1 0 -6.5 2.7 -4.9 1.4 2.6 -2.1 4 -1.8 7.8 -3.1 8.5 -2.7 0.6 0.3 0.8 0.3 0.4 -0.2 -0.5 -0.5 1.6 -2.4 4.5 -4.3 7.8 -5.2 11.7 -9.2 14.3 -14.7 2.4 -5.1 3.2 -12.9 1.4 -14 -0.5 -0.3 -0.7 -1.2 -0.4 -1.9 0.8 -2 -4.4 -9.9 -5.8 -9 -0.7 0.5 -0.9 0.2 -0.6 -0.7 0.3 -0.8 0 -2.6 -0.8 -4 -2 -3.6 -1.7 -5.9 0.6 -5.9 1.3 0 2 0.7 2 2 0 1.1 0.4 2 0.8 2 0.5 0 1.5 1.2 2.3 2.8 0.8 1.5 2 3.3 2.7 4 0.6 0.7 1.2 2.9 1.2 4.8 0 2.7 0.4 3.4 1.9 3.4 1.4 0 2 1 2.4 4 0.3 2.2 1.2 4.6 2 5.5 0.9 0.8 1.9 2.4 2.2 3.5 0.3 1.1 1.4 2 2.4 2 1 0 2.4 1.1 3.1 2.5 0.7 1.3 2.1 2.7 3.1 3 0.9 0.3 2 1.2 2.3 2 0.3 0.8 1.5 1.5 2.6 1.5 1.3 0 2 0.7 2 1.8 0 2.2 -22.4 13.8 -38.7 20.1 -8.6 3.3 -10.4 3.7 -11.4 2.5z"/>
  <path d="M387.4 479.8 c0.9 -4.6 5.1 -11.3 8.6 -13.8 l3 -2.1 0 2.9 c0 3.1 -2.6 6.2 -5.3 6.2 -1.2 0 -1.7 0.9 -1.7 2.8 0 4.8 -1.1 7.2 -3.2 7.2 -1.8 0 -2 -0.5 -1.4 -3.2z"/>
  <path d="M401 464.1 c0 -2.7 13.4 -5.8 19 -4.6 5.5 1.2 3.5 3.2 -3.7 3.9 -3.8 0.3 -8.7 0.8 -11 1.2 -3 0.4 -4.3 0.2 -4.3 -0.5z"/>
  <path d="M432 461.7 c0 -1.1 1.2 -1.8 3.8 -2.2 9.4 -1.4 14.7 -2.6 15.4 -3.3 0.4 -0.4 -0.9 -3.2 -2.8 -6.2 -4 -6.4 -4.4 -9 -1.1 -9 2.9 0 17.7 -4.2 24.5 -6.9 l5.2 -2.1 0 2.3 c0 1.2 -0.8 2.9 -1.9 3.6 -2.2 1.6 -1.7 4.8 1 5.6 1.4 0.5 1.9 1.6 1.9 4 0 3.2 -0.4 3.6 -6.7 6.6 -8.1 3.7 -23 7.7 -32.5 8.6 -5.8 0.5 -6.8 0.4 -6.8 -1z"/>
  <path d="M482 430.2 c0 -0.4 1.5 -1.6 3.3 -2.6 1.7 -1.1 5.8 -3.6 9 -5.8 l5.7 -3.8 0 3 c0 2.7 -0.3 3 -3 3 -2.3 0 -3 0.4 -3 2 0 1.5 -0.7 2 -2.5 2 -1.6 0 -2.5 0.6 -2.5 1.5 0 1 -1.1 1.5 -3.5 1.5 -1.9 0 -3.5 -0.4 -3.5 -0.8z"/>
  <path d="M511 407.5 c1.9 -1.9 3.5 -3.5 3.7 -3.5 0.2 0 0.3 1.6 0.3 3.5 0 3.4 -0.1 3.5 -3.7 3.5 l-3.7 0 3.4 -3.5z"/>
  <path d="M204.5 122.1 c2.2 -1.1 3.4 -2 2.7 -2 -0.7 -0.1 -1.1 -0.5 -0.7 -1.1 0.3 -0.5 -0.6 -1.7 -2 -2.6 -2.9 -1.9 -3.3 -4 -0.7 -4.7 17 -4.8 15.7 -4.7 19.1 -2.6 2.5 1.5 5.2 6.4 4 7.2 -0.2 0.2 -5.3 1.7 -11.4 3.4 -6 1.7 -11.9 3.4 -13 3.7 -1.1 0.4 -0.2 -0.2 2 -1.3z"/>
 </g>
 <g fill="#00b7ed">
  <path d="M383 538.3 c1.4 -1 4.5 -3.6 7 -5.8 l4.5 -3.9 -3.7 4 c-2.1 2.2 -5.2 4.7 -7 5.7 -3.2 1.7 -3.2 1.7 -0.8 0z"/>
  <path d="M416.6 537.3 c0.1 -0.6 -1.5 -3 -3.7 -5.4 -2.1 -2.3 -3.9 -4.6 -3.9 -5.1 0 -0.4 -0.9 -0.8 -1.9 -0.8 -1.1 0 -2.3 -0.9 -2.6 -2 -0.3 -1.1 -1.3 -2.7 -2.1 -3.5 -0.8 -0.8 -1.9 -3.4 -2.3 -5.7 l-0.9 -4.3 -0.1 4.5 c-0.1 2.5 -0.5 5.1 -1 5.9 -0.5 0.8 -0.7 -0.4 -0.4 -3.2 0.3 -2.5 0.2 -5.4 -0.2 -6.4 -0.5 -1 -0.7 -2.4 -0.6 -3.1 0.1 -0.7 -1 -3.4 -2.5 -5.9 -2 -3.5 -2.9 -4.2 -3.6 -3.2 -0.8 1.1 -0.9 1 -0.4 -0.3 0.3 -0.9 -0.2 -3.1 -1.1 -4.9 -4.1 -8.3 -2.1 -18.7 5 -25.7 4.6 -4.5 9.2 -6.8 16.9 -8.2 6.5 -1.3 8.8 -0.6 11.5 3.3 1.3 1.8 3.3 4.3 4.5 5.7 1.3 1.4 4.3 5 6.8 8 2.5 3 4.7 5.7 5 6 0.3 0.3 2.1 2.5 4 5 1.9 2.5 4.7 5.7 6.2 7.3 1.5 1.5 2.8 3 2.8 3.3 0 0.3 1.6 2.6 3.5 5.1 1.9 2.5 3.5 5.1 3.5 5.7 0 1.4 -17.5 14.4 -29.3 21.8 -6.4 4 -9.4 5.3 -9.9 4.5 -0.7 -1.1 -1.2 -0.2 -0.9 1.6 0.1 0.5 -0.3 0.6 -0.8 0.3 -0.5 -0.4 -1.1 -0.3 -1.4 0.1 -0.2 0.5 -0.3 0.3 -0.1 -0.4z"/>
  <path d="M435 461.5 c0 -0.8 0.3 -1.5 0.6 -1.5 0.3 0 5.2 -0.9 10.7 -2.1 11.1 -2.2 22.5 -6.3 24.4 -8.6 0.6 -0.8 1.6 -1.2 2.2 -0.9 0.5 0.4 1.2 0.2 1.5 -0.3 0.4 -0.5 -0.2 -1.2 -1.1 -1.5 -1.9 -0.6 -4.3 -4.9 -4.3 -7.7 0 -1 -0.6 -2 -1.2 -2.2 -0.7 -0.3 -0.1 -0.6 1.4 -0.6 1.4 -0.1 2.8 -0.5 3 -0.9 0.2 -0.5 4.4 -3 9.4 -5.6 10.9 -5.8 18.6 -11.3 27.6 -20.2 l6.8 -6.7 0 3.2 c0 4.5 -4.3 9.1 -8.7 9.1 -3 0 -3.3 0.3 -3.3 3 0 2.1 -0.5 3 -1.6 3 -1.2 0 -1.4 0.5 -0.9 1.8 1.4 3.1 1.7 7.7 0.6 10.4 -1.2 3.1 -12.6 12 -22.2 17.2 -9.2 5.1 -21.4 9.3 -31.6 11.1 -10.9 1.9 -13.3 1.9 -13.3 0z"/>
  <path d="M421 441.2 c0 -0.5 0.7 -1.3 1.6 -1.6 1 -0.4 1.4 -0.1 1.2 0.6 -0.5 1.5 -2.8 2.3 -2.8 1z"/>
  <path d="M222 116.5 c0.6 -0.8 0.9 -1.9 0.5 -2.5 -0.9 -1.4 -6.8 -4.5 -8 -4.1 -0.7 0.2 -0.7 -0.1 0 -0.7 1.3 -1.2 8.6 -3 19 -4.7 7.9 -1.3 8 -1.3 11.8 1.2 2.3 1.6 3.7 3.4 3.7 4.7 0 2 -1 2.3 -10.7 4 -6 1 -11.8 1.9 -13 2 -1.3 0 -2.3 0.4 -2.3 0.9 0 0.4 -0.5 0.7 -1.1 0.7 -0.8 0 -0.8 -0.4 0.1 -1.5z"/>
 </g>
 <g fill="#6ac9f3">
  <path d="M263.3 565.3 c1.5 -0.2 3.7 -0.2 5 0 1.2 0.2 0 0.4 -2.8 0.4 -2.7 0 -3.8 -0.2 -2.2 -0.4z"/>
  <path d="M280.8 565.3 c1.2 -0.2 3.2 -0.2 4.5 0 1.2 0.2 0.2 0.4 -2.3 0.4 -2.5 0 -3.5 -0.2 -2.2 -0.4z"/>
  <path d="M453 514.7 c0 -0.3 0.7 -1.2 1.5 -2 1.3 -1.3 1 -2 -2 -6 -1.9 -2.5 -3.5 -4.8 -3.5 -5.1 0 -0.2 -1.5 -2 -3.2 -3.9 -4.7 -5 -9.6 -10.7 -9.2 -10.7 0.5 0 -4 -5.3 -7.7 -9.2 -1.5 -1.5 -2.4 -3 -2.1 -3.3 0.3 -0.3 -0.3 -0.5 -1.3 -0.5 -1 0 -1.6 -0.3 -1.2 -0.6 0.8 -0.8 -8 -11.7 -10.2 -12.6 -0.9 -0.4 3.9 -0.7 10.5 -0.7 26.1 -0.2 46.2 -6.8 66.2 -21.8 4 -3 7.7 -6.4 8.1 -7.6 1 -2.7 -1.3 -7.7 -3.5 -7.7 -0.8 0 2.2 -3.1 6.8 -6.9 4.6 -3.9 10.8 -9.9 13.7 -13.5 2.9 -3.7 5.5 -6.6 5.7 -6.6 0.2 0 0.4 1.6 0.4 3.5 0 2.8 -0.4 3.5 -2 3.5 -2.2 0 -2.5 1.6 -2.1 10.6 l0.3 5 -9.2 9.7 c-5.1 5.3 -9.8 9.7 -10.5 9.7 -0.7 0 -1.5 0.7 -1.9 1.5 -0.3 0.8 -1.2 1.5 -2 1.5 -0.7 0 -1.6 0.7 -2 1.5 -0.3 0.8 -1.2 1.5 -2.1 1.5 -0.8 0 -1.5 0.5 -1.5 1 0 0.6 -0.7 1 -1.5 1 -0.8 0 -1.5 0.4 -1.5 1 0 0.5 -1.1 1.2 -2.5 1.6 -1.4 0.3 -2.5 1 -2.5 1.4 0 0.8 -11.2 6 -17.2 7.9 -2.1 0.7 -3.8 1.5 -3.8 1.8 0 0.6 6 8.1 13.1 16.3 3.1 3.6 6.4 7.8 7.4 9.4 l1.9 2.9 -9.5 9.1 c-9.5 9.2 -19.9 18.2 -19.9 17.3z"/>
  <path d="M523 393.4 c0 -1.2 3.4 -6.4 4.2 -6.4 0.4 0 0.8 1.6 0.8 3.5 0 3.1 -0.3 3.5 -2.5 3.5 -1.4 0 -2.5 -0.3 -2.5 -0.6z"/>
  <path d="M530.4 376.8 c0.7 -3.7 1.1 -4.2 2.5 -3.3 0.6 0.3 1.1 1.9 1.1 3.6 0 2.3 -0.4 2.9 -2.1 2.9 -1.9 0 -2.1 -0.4 -1.5 -3.2z"/>
  <path d="M246 112.3 c0 -1.4 -7.2 -6.2 -10.6 -7.2 -2.3 -0.6 -0.6 -1 7.4 -1.9 5.6 -0.7 11.9 -1.2 13.8 -1.2 4.4 0 10.4 4.5 10.4 7.8 0 1.9 -0.5 2.2 -4.4 2.2 -2.3 0 -7.1 0.3 -10.5 0.6 -3.8 0.4 -6.1 0.3 -6.1 -0.3z"/>
 </g>
 <g fill="#87d2f6">
  <path d="M477.9 491.9 c1.3 -1.8 0.4 -3.3 -8.3 -13.5 -10.5 -12.3 -14.1 -16.9 -13.9 -17.6 0.2 -0.5 -0.2 -0.8 -0.8 -0.8 -0.5 0 -0.7 -0.4 -0.4 -1 0.3 -0.5 0 -1 -0.7 -1 -0.7 -0.1 1.9 -1.2 5.7 -2.5 3.9 -1.4 10.4 -4.2 14.5 -6.3 4.1 -2 7.8 -3.8 8.3 -4 0.4 -0.2 0.7 0.8 0.7 2.2 0 1.9 -0.5 2.6 -2 2.6 -2 0 -2 0.1 -0.3 2.8 0.9 1.5 3.5 4.8 5.8 7.3 7.4 8.4 9.5 11.1 9.5 12.3 0 0.6 -4.3 5.6 -9.6 11.1 -5.3 5.5 -9.1 9.3 -8.5 8.4z"/>
  <path d="M484 444.3 c0 -0.5 1.5 -1.8 3.3 -3 1.7 -1.1 5.1 -3.5 7.5 -5.3 l4.2 -3.2 0 3.1 c0 2.4 -0.4 3.1 -2 3.1 -1.1 0 -2 0.7 -2 1.5 0 0.8 -0.9 1.5 -2 1.5 -1.1 0 -2 0.7 -2 1.5 0 1 -1.1 1.5 -3.5 1.5 -1.9 0 -3.5 -0.3 -3.5 -0.7z"/>
  <path d="M510 421.3 c0.8 -1 2.2 -2.8 3.3 -3.9 1.7 -2.1 1.8 -2.4 0.2 -5.3 -0.9 -1.9 -2 -2.9 -2.7 -2.5 -0.6 0.4 1.1 -1.9 3.8 -5.2 2.7 -3.2 6.3 -8 7.9 -10.7 1.7 -2.6 3.3 -4.7 3.8 -4.7 1.2 0 0.8 6.8 -0.5 7.4 -1 0.5 -1 0.7 0 1.2 2.4 1.1 1.2 6.7 -2.8 13.6 -2.3 3.7 -4.7 6.8 -5.5 6.8 -0.7 0 -1.5 1 -1.7 2.3 -0.2 1.7 -1.1 2.3 -3.7 2.5 -3.2 0.3 -3.4 0.2 -2.1 -1.5z"/>
  <path d="M528.3 382.8 c1.9 -4.6 3.7 -4.8 3.7 -0.4 0 3.2 -0.3 3.6 -2.5 3.6 -2.4 0 -2.5 -0.1 -1.2 -3.2z"/>
  <path d="M531.1 373.3 c0 -1 0.4 -2.7 0.8 -3.8 0.7 -1.6 0.9 -1.3 1.3 1.8 0.3 2.6 0 3.7 -0.9 3.7 -0.7 0 -1.3 -0.8 -1.2 -1.7z"/>
  <path d="M399.3 177.5 c3.6 -3.2 4.7 -3.1 4.7 0 0 2.2 -0.4 2.5 -3.7 2.5 l-3.8 -0.1 2.8 -2.4z"/>
  <path d="M125 173.7 c0 -0.2 1.5 -1.6 3.3 -3.3 l3.2 -2.9 -2.9 3.3 c-2.8 3 -3.6 3.7 -3.6 2.9z"/>
  <path d="M262.3 111.1 c1.5 -0.6 0.9 -1.4 -3.8 -4.8 l-5.6 -4.2 9.8 -0.3 c9.4 -0.3 10 -0.2 14.5 2.7 3.2 2.1 4.7 3.7 4.7 5.3 0.1 2.2 -0.1 2.2 -10.6 2.1 -6 0 -10 -0.4 -9 -0.8z"/>
 </g>
 <g fill="#a2d8ea">
  <path d="M122.6 200.4 c-2.7 -2.6 -1.8 -4.8 4.7 -12.5 25.7 -30 65.3 -52.9 107.7 -62.1 9.3 -2 13.3 -2.3 35.5 -2.3 22.2 0 26.3 0.3 36.5 2.3 30.2 6.2 61.7 20.5 84 38.3 l5.5 4.4 -4.6 4.6 c-2.8 2.8 -4.6 4 -4.5 3.1 0.2 -2.9 -17.1 -14.8 -32.7 -22.7 -52.2 -26.3 -109 -27.3 -160.5 -2.9 -21 9.9 -38.4 22.6 -56 40.8 -10.3 10.7 -12.6 12 -15.6 9z"/>
  <path d="M411.5 195.8 c-1.1 -0.6 -4.7 -3.7 -8 -6.8 -3.3 -3.1 -6.7 -5.9 -7.5 -6.3 -1.1 -0.4 -0.6 -1.4 2.4 -4.1 2.2 -2 4.3 -3.6 4.7 -3.6 1.3 0 13 13.2 14 15.7 0.7 2 0.6 3 -0.7 4.4 -2 2.2 -2.2 2.2 -4.9 0.7z"/>
 </g>
 <g fill="#9ed9f7">
  <path d="M466.2 760 c0 -1.9 0.2 -2.7 0.5 -1.7 0.2 0.9 0.2 2.5 0 3.5 -0.3 0.9 -0.5 0.1 -0.5 -1.8z"/>
  <path d="M491.9 476.5 c1.4 -2.2 1.4 -2.2 -9.1 -14.2 -2.7 -2.9 -4.8 -5.7 -4.8 -6.1 0 -0.4 -1.1 -1.9 -2.4 -3.3 l-2.5 -2.7 7.2 -4.2 c4 -2.4 9.7 -6.2 12.7 -8.5 8.3 -6.4 22.3 -21.6 26.9 -29.1 3.9 -6.6 3.9 -6.7 2 -8.3 -2 -1.6 -2 -1.7 1.6 -7.6 2 -3.3 4.3 -8.1 5.3 -10.7 2.7 -7.8 4.5 -6.3 4 3.5 -0.3 6.7 -0.9 9.5 -3.7 15.5 -1.9 3.9 -3.7 7.2 -4.1 7.2 -0.4 0 -1.1 1.1 -1.4 2.5 -0.5 1.8 -1.3 2.5 -3.1 2.5 -2 0 -2.4 0.5 -2.7 3.8 -0.2 3 -0.7 3.8 -2.5 4 -1.6 0.2 -2.3 1 -2.3 2.6 0 3.5 -7.9 10.6 -11.8 10.6 -2.9 0 -3.2 0.3 -3.2 3 0 2.3 -0.4 3 -2 3 -1.1 0 -2 0.4 -2 0.9 0 0.9 4.3 6.5 6.6 8.6 2.1 1.9 5.4 7.3 5.4 8.8 0 1.7 -10.6 16.3 -13.5 18.7 -1.7 1.4 -1.7 1.4 -0.6 -0.5z"/>
  <path d="M531.1 374.3 c0 -1 0.4 -2.7 0.9 -3.8 0.8 -1.9 0.9 -1.9 0.9 0.2 0.1 1.2 0.4 2.8 0.7 3.7 0.4 1.1 0.1 1.6 -1 1.6 -0.9 0 -1.6 -0.8 -1.5 -1.7z"/>
  <path d="M280.5 112 c-4.9 -0.3 -7.2 -0.7 -5.1 -0.8 l3.9 -0.2 -3.9 -2.6 c-2.1 -1.5 -4.9 -3.5 -6.1 -4.4 l-2.3 -1.8 3.1 -0.6 c1.7 -0.3 6.1 -0.3 9.8 0 8.2 0.8 14.4 4.4 14.9 8.7 0.3 2.4 0 2.7 -2.5 2.5 -1.5 -0.1 -6.8 -0.5 -11.8 -0.8z"/>
  <path d="M264.3 111.3 c1.5 -0.2 3.7 -0.2 5 0 1.2 0.2 0 0.4 -2.8 0.4 -2.7 0 -3.8 -0.2 -2.2 -0.4z"/>
 </g>
 <g fill="#b3e0f9">
  <path d="M503 461.6 c0 -2 -3 -6.6 -7.5 -11.4 -1.6 -1.8 -3.7 -4.6 -4.6 -6.2 -0.9 -1.6 -1.8 -2.8 -2 -2.7 -0.2 0.1 0.6 -0.7 2 -1.7 1.3 -1.1 4.9 -4.1 8 -6.8 3.1 -2.6 5.9 -4.8 6.3 -4.8 0.4 0 2 1.9 3.6 4.3 1.6 2.3 3.9 5.1 5.1 6.1 1.1 1.1 2.1 2.7 2.1 3.6 0 1.5 -9.8 18.1 -12.1 20.5 -0.6 0.5 -0.9 0.2 -0.9 -0.9z"/>
  <path d="M510 422.3 c8.4 -10.9 11.6 -15.8 15 -22.8 3.8 -7.8 6.2 -14.6 4.2 -11.6 -1.6 2.3 -2.1 -0.9 -0.7 -4.4 0.6 -1.6 1.8 -5.5 2.5 -8.5 1.2 -4.8 1.5 -5.2 2.1 -3 1.9 6.6 0.3 24 -2.3 24 -0.4 0 -0.8 0.9 -0.8 1.9 0 3.3 -1.1 5.1 -3.1 5.1 -1.5 0 -1.9 0.7 -1.9 3.5 0 2.8 -0.4 3.5 -2 3.5 -1.6 0 -2 0.7 -2 3 0 1.7 -0.4 3 -1 3 -0.5 0 -1 0.7 -1 1.5 0 0.9 -0.9 1.5 -2.5 1.5 -2.1 0 -2.5 0.5 -2.5 3 0 2.7 -0.3 3 -3.1 3 l-3.1 0 2.2 -2.7z"/>
  <path d="M302.5 113.9 c-2.2 -0.4 -6.2 -0.8 -9 -0.9 -3.1 -0.1 -4.3 -0.4 -3.2 -0.9 1.8 -0.6 1.8 -0.7 0 -2.2 -1 -0.8 -3.7 -2.8 -6 -4.3 -2.4 -1.6 -4.3 -3.1 -4.3 -3.4 0 -0.3 4.5 -0.2 10 0.1 8.8 0.4 10.4 0.8 13.9 3.4 3.3 2.3 4.1 3.4 4.1 6.1 0 1.7 -0.3 3.1 -0.7 3.1 -0.5 -0.1 -2.6 -0.5 -4.8 -1z"/>
  <path d="M270.8 111.3 c1.7 -0.2 4.7 -0.2 6.5 0 1.7 0.2 0.3 0.4 -3.3 0.4 -3.6 0 -5 -0.2 -3.2 -0.4z"/>
 </g>
 <g fill="#cae9fc">
  <path d="M521.4 754.5 c0 -4.9 0.1 -7.1 0.3 -4.8 0.2 2.3 0.2 6.4 0 9 -0.2 2.6 -0.3 0.8 -0.3 -4.2z"/>
  <path d="M375.3 753.5 c0 -2.7 0.2 -3.8 0.4 -2.2 0.2 1.5 0.2 3.7 0 5 -0.2 1.2 -0.4 0 -0.4 -2.8z"/>
  <path d="M233.4 706 c0 -6.9 0.1 -9.7 0.3 -6.2 0.2 3.4 0.2 9 0 12.5 -0.2 3.4 -0.3 0.6 -0.3 -6.3z"/>
  <path d="M271.3 671.5 c0 -3.8 0.2 -5.3 0.4 -3.2 0.2 2 0.2 5.2 0 7 -0.2 1.7 -0.4 0.1 -0.4 -3.8z"/>
  <path d="M270.8 565.3 c1.7 -0.2 4.7 -0.2 6.5 0 1.7 0.2 0.3 0.4 -3.3 0.4 -3.6 0 -5 -0.2 -3.2 -0.4z"/>
  <path d="M287.3 482.3 c2 -0.2 5.4 -0.2 7.5 0 2 0.2 0.3 0.4 -3.8 0.4 -4.1 0 -5.8 -0.2 -3.7 -0.4z"/>
  <path d="M267.8 448.3 c1.8 -0.2 4.5 -0.2 6 0 1.5 0.2 0 0.4 -3.3 0.4 -3.3 0 -4.5 -0.2 -2.7 -0.4z"/>
  <path d="M513 444.7 c0 -0.8 -1 -2.2 -2.1 -3.3 -1.2 -1 -3.5 -3.8 -5.1 -6.2 -1.8 -2.6 -3.4 -4 -4.1 -3.5 -0.7 0.4 1.7 -2.4 5.1 -6.1 16.4 -17.6 25.1 -35.2 25.3 -51.3 l0.1 -7.8 1 5.5 c1.8 10.7 -0.3 26.1 -4.2 30 -0.3 0.3 -1.3 2.2 -2.3 4.4 -1.7 3.6 -1.7 4 -0.1 5.7 2.2 2.5 1.1 6.3 -6.4 22.2 -5 10.7 -7.2 13.8 -7.2 10.4z"/>
  <path d="M313.5 116.1 c-5.3 -1.1 -8.1 -2.2 -8.3 -3.2 -0.1 -0.8 -3.2 -3.4 -6.7 -5.8 -3.6 -2.5 -6.3 -4.6 -6.2 -4.8 0.6 -0.5 17.2 2.5 26.9 4.8 9.6 2.3 11.1 3.4 10.6 7.6 -0.3 2.5 -0.7 2.8 -4.3 3 -2.2 0.1 -7.6 -0.6 -12 -1.6z"/>
 </g>
 <g fill="#def1fe">
  <path d="M466.3 755.5 c0 -4.4 0.2 -6.1 0.4 -3.7 0.2 2.3 0.2 5.9 0 8 -0.2 2 -0.4 0.1 -0.4 -4.3z"/>
  <path d="M525.8 760.3 c1.2 -0.2 3 -0.2 4 0 0.9 0.3 -0.1 0.5 -2.3 0.4 -2.2 0 -3 -0.2 -1.7 -0.4z"/>
  <path d="M304.2 751 c0 -1.9 0.2 -2.7 0.5 -1.7 0.2 0.9 0.2 2.5 0 3.5 -0.3 0.9 -0.5 0.1 -0.5 -1.8z"/>
  <path d="M375.3 747.5 c0 -2.7 0.2 -3.8 0.4 -2.2 0.2 1.5 0.2 3.7 0 5 -0.2 1.2 -0.4 0 -0.4 -2.8z"/>
  <path d="M527.3 749.3 c0.9 -0.2 2.5 -0.2 3.5 0 0.9 0.3 0.1 0.5 -1.8 0.5 -1.9 0 -2.7 -0.2 -1.7 -0.5z"/>
  <path d="M521.3 744 c0 -3 0.2 -4.3 0.4 -2.7 0.2 1.5 0.2 3.9 0 5.5 -0.2 1.5 -0.4 0.2 -0.4 -2.8z"/>
  <path d="M176.4 690 c0 -16.2 0.2 -22.9 0.3 -14.7 0.2 8.1 0.2 21.3 0 29.5 -0.1 8.1 -0.3 1.4 -0.3 -14.8z"/>
  <path d="M271.4 697 c0 -12.4 0.2 -17.4 0.3 -11.2 0.2 6.1 0.2 16.3 0 22.5 -0.1 6.1 -0.3 1.1 -0.3 -11.3z"/>
  <path d="M271.3 664.5 c0 -2.2 0.2 -3 0.4 -1.7 0.2 1.2 0.2 3 0 4 -0.3 0.9 -0.5 -0.1 -0.4 -2.3z"/>
  <path d="M292.3 482.3 c0.9 -0.2 2.5 -0.2 3.5 0 0.9 0.3 0.1 0.5 -1.8 0.5 -1.9 0 -2.7 -0.2 -1.7 -0.5z"/>
  <path d="M525.6 418.5 c-0.3 -1.1 -1.8 -3.3 -3.2 -5 -1.5 -1.6 -2.3 -2.4 -1.9 -1.6 0.6 1 0.4 1.2 -0.4 0.7 -0.9 -0.6 -0.6 -1.6 0.8 -3.9 6.1 -10 10.9 -22.7 12.5 -32.7 0.2 -1.4 0.4 1.3 0.5 6 0.1 10.6 -1.2 18.7 -4.8 29.8 -2.1 6.6 -2.9 8.2 -3.5 6.7z"/>
  <path d="M68.3 314.5 c0 -3.8 0.2 -5.3 0.4 -3.2 0.2 2 0.2 5.2 0 7 -0.2 1.7 -0.4 0.1 -0.4 -3.8z"/>
  <path d="M418.8 169.3 c1.2 -0.2 3 -0.2 4 0 0.9 0.3 -0.1 0.5 -2.3 0.4 -2.2 0 -3 -0.2 -1.7 -0.4z"/>
  <path d="M323.8 111.8 c-3.1 -2.3 -5.6 -4.4 -5.4 -4.6 0.7 -0.7 9.6 2.1 10.6 3.4 0.7 0.7 1 2.2 0.8 3.3 -0.3 1.9 -0.8 1.8 -6 -2.1z"/>
 </g>
</svg>